<mxfile host="app.diagrams.net" modified="2023-04-05T20:05:46.809Z" agent="Mozilla/5.0 (X11; Linux x86_64; rv:109.0) Gecko/20100101 Firefox/110.0" etag="YrA2LDChLC8c9HRG1zdW" version="21.1.4" type="device">
  <diagram name="Page-1" id="nVVe15fnvjTetXFF5ZMR">
    <mxGraphModel dx="1465" dy="685" grid="1" gridSize="10" guides="1" tooltips="1" connect="1" arrows="1" fold="1" page="1" pageScale="1" pageWidth="850" pageHeight="1100" math="0" shadow="0">
      <root>
        <mxCell id="0" />
        <mxCell id="1" parent="0" />
        <mxCell id="Mc4lCw9kWAzM-R2vFNMm-5" style="edgeStyle=orthogonalEdgeStyle;rounded=0;orthogonalLoop=1;jettySize=auto;html=1;entryX=0.5;entryY=1;entryDx=0;entryDy=0;" parent="1" source="Mc4lCw9kWAzM-R2vFNMm-1" target="Mc4lCw9kWAzM-R2vFNMm-3" edge="1">
          <mxGeometry relative="1" as="geometry" />
        </mxCell>
        <mxCell id="Mc4lCw9kWAzM-R2vFNMm-28" value="Book Hotel" style="edgeLabel;html=1;align=center;verticalAlign=middle;resizable=0;points=[];" parent="Mc4lCw9kWAzM-R2vFNMm-5" vertex="1" connectable="0">
          <mxGeometry x="0.2937" y="-1" relative="1" as="geometry">
            <mxPoint as="offset" />
          </mxGeometry>
        </mxCell>
        <mxCell id="Mc4lCw9kWAzM-R2vFNMm-6" style="edgeStyle=orthogonalEdgeStyle;rounded=0;orthogonalLoop=1;jettySize=auto;html=1;exitX=0;exitY=0.5;exitDx=0;exitDy=0;entryX=0.5;entryY=1;entryDx=0;entryDy=0;" parent="1" source="Mc4lCw9kWAzM-R2vFNMm-1" target="Mc4lCw9kWAzM-R2vFNMm-2" edge="1">
          <mxGeometry relative="1" as="geometry" />
        </mxCell>
        <mxCell id="Mc4lCw9kWAzM-R2vFNMm-29" value="&lt;div&gt;Book Flight&lt;/div&gt;" style="edgeLabel;html=1;align=center;verticalAlign=middle;resizable=0;points=[];" parent="Mc4lCw9kWAzM-R2vFNMm-6" vertex="1" connectable="0">
          <mxGeometry x="0.2619" relative="1" as="geometry">
            <mxPoint as="offset" />
          </mxGeometry>
        </mxCell>
        <mxCell id="Mc4lCw9kWAzM-R2vFNMm-1" value="&lt;div&gt;Booking Service&lt;/div&gt;&lt;div&gt;(SAGA Orchestrator)&lt;br&gt;&lt;/div&gt;" style="rounded=1;whiteSpace=wrap;html=1;" parent="1" vertex="1">
          <mxGeometry x="380" y="440" width="120" height="60" as="geometry" />
        </mxCell>
        <mxCell id="Mc4lCw9kWAzM-R2vFNMm-2" value="Flight Service" style="rounded=1;whiteSpace=wrap;html=1;" parent="1" vertex="1">
          <mxGeometry x="240" y="280" width="120" height="60" as="geometry" />
        </mxCell>
        <mxCell id="Mc4lCw9kWAzM-R2vFNMm-3" value="Hotels Service" style="rounded=1;whiteSpace=wrap;html=1;" parent="1" vertex="1">
          <mxGeometry x="520" y="280" width="120" height="60" as="geometry" />
        </mxCell>
        <mxCell id="Mc4lCw9kWAzM-R2vFNMm-13" style="edgeStyle=orthogonalEdgeStyle;rounded=0;orthogonalLoop=1;jettySize=auto;html=1;entryX=0.5;entryY=1;entryDx=0;entryDy=0;" parent="1" source="Mc4lCw9kWAzM-R2vFNMm-12" target="Mc4lCw9kWAzM-R2vFNMm-1" edge="1">
          <mxGeometry relative="1" as="geometry" />
        </mxCell>
        <mxCell id="Mc4lCw9kWAzM-R2vFNMm-27" value="Book Flight + Hotel" style="edgeLabel;html=1;align=center;verticalAlign=middle;resizable=0;points=[];" parent="Mc4lCw9kWAzM-R2vFNMm-13" vertex="1" connectable="0">
          <mxGeometry x="0.1458" relative="1" as="geometry">
            <mxPoint as="offset" />
          </mxGeometry>
        </mxCell>
        <mxCell id="Mc4lCw9kWAzM-R2vFNMm-14" style="edgeStyle=orthogonalEdgeStyle;rounded=0;orthogonalLoop=1;jettySize=auto;html=1;entryX=1;entryY=0.5;entryDx=0;entryDy=0;" parent="1" source="Mc4lCw9kWAzM-R2vFNMm-12" target="Mc4lCw9kWAzM-R2vFNMm-3" edge="1">
          <mxGeometry relative="1" as="geometry" />
        </mxCell>
        <mxCell id="Mc4lCw9kWAzM-R2vFNMm-25" value="Hotels CRUD" style="edgeLabel;html=1;align=center;verticalAlign=middle;resizable=0;points=[];" parent="Mc4lCw9kWAzM-R2vFNMm-14" vertex="1" connectable="0">
          <mxGeometry x="-0.3036" y="-1" relative="1" as="geometry">
            <mxPoint as="offset" />
          </mxGeometry>
        </mxCell>
        <mxCell id="Mc4lCw9kWAzM-R2vFNMm-15" style="edgeStyle=orthogonalEdgeStyle;rounded=0;orthogonalLoop=1;jettySize=auto;html=1;entryX=0;entryY=0.5;entryDx=0;entryDy=0;" parent="1" source="Mc4lCw9kWAzM-R2vFNMm-12" target="Mc4lCw9kWAzM-R2vFNMm-2" edge="1">
          <mxGeometry relative="1" as="geometry" />
        </mxCell>
        <mxCell id="Mc4lCw9kWAzM-R2vFNMm-24" value="Planes CRUD " style="edgeLabel;html=1;align=center;verticalAlign=middle;resizable=0;points=[];" parent="Mc4lCw9kWAzM-R2vFNMm-15" vertex="1" connectable="0">
          <mxGeometry x="-0.3125" y="1" relative="1" as="geometry">
            <mxPoint as="offset" />
          </mxGeometry>
        </mxCell>
        <mxCell id="Mc4lCw9kWAzM-R2vFNMm-12" value="&lt;div&gt;NGINX&lt;/div&gt;&lt;div&gt;(API Gateway)&lt;br&gt;&lt;/div&gt;" style="rounded=1;whiteSpace=wrap;html=1;" parent="1" vertex="1">
          <mxGeometry x="380" y="660" width="120" height="60" as="geometry" />
        </mxCell>
        <mxCell id="Mc4lCw9kWAzM-R2vFNMm-17" style="edgeStyle=orthogonalEdgeStyle;rounded=0;orthogonalLoop=1;jettySize=auto;html=1;" parent="1" source="Mc4lCw9kWAzM-R2vFNMm-16" target="Mc4lCw9kWAzM-R2vFNMm-12" edge="1">
          <mxGeometry relative="1" as="geometry" />
        </mxCell>
        <mxCell id="Mc4lCw9kWAzM-R2vFNMm-16" value="&lt;div&gt;Web App &lt;/div&gt;" style="rounded=1;whiteSpace=wrap;html=1;" parent="1" vertex="1">
          <mxGeometry x="380" y="800" width="120" height="60" as="geometry" />
        </mxCell>
        <mxCell id="RrAkKvRdYdzd3wH-LYKH-2" value="" style="shape=image;verticalLabelPosition=bottom;labelBackgroundColor=default;verticalAlign=top;aspect=fixed;imageAspect=0;image=data:image/png,iVBORw0KGgoAAAANSUhEUgAAAu0AAAIACAMAAAABuqIJAAAABGdBTUEAALGPC/xhBQAAAAFzUkdCAK7OHOkAAAMAUExURUdwTP8/APpMAPpMAP9VAP9/APpPAPpPAP8AAPpMAP9VAPpPAP9mAPpMAP9IAPpPAPpPAP9FAP9OAP9VAPpPAP9IAP9MAPpMAP9PAPpMAPpMAP9MAPpNAPpMAPpPAP9QAPpOAP8/APpPAPpMAPpMAP9MAP9NAP9PAP9VAPxNAPpMAPxOAPpPAP9LAP1PAP9QAPxOAP9MAPxNAP9VAPtPAP9VAP1NAPxOAPtPAP9KAPxPAPpOAP9OAP9RAP1PAP9MAP9RAPpPAPxNAP9OAPxPAP1PAP1OAP1PAP1NAP9OAPpPAP9VAP1PAPpPAPxPAP9SAP9LAP1OAPtOAPtMAPtPAPtPAPtNAP1OAPxPAPxQAPtPAP9NAP9NAP9QAP9OAPxMAP1OAP1OAPxOAP1OAP1PAP1PAPxPAP1PAP9RAP1PAPxPAPpPAP1PAPtPAPtPAP9QAP9NAP9PAP9OAP9QAP1PAPxQAP1PAPxPAP9NAP1OAP9QAPxOAP9PAPxPAPxQAPpPAP1PAP9QAPxOAPtOAP1OAP9NAPtNAPxPAP1OAPpMAPxPAPxPAP9NAP1PAP1PAPtOAP1PAP1PAP9OAPxOAPxPAP1OAP9PAPxPAPxNAP1PAP1PAPtPAPtNAPtMAP1PAP9QAPtNAPtPAP9OAP1OAPtPAP1OAPtOAPxPAPxPAPxNAP1OAPpNAPxOAPxOAP1OAPxNAP1NAPtQAPxOAP9QAP1OAP1PAPtPAPtQAP1NAP1PAP1PAPxPAPtQAPxOAP1PAP1PAPxOAPxOAP1OAPxOAPxNAPtNAPxPAPxPAP9LAPtOAPtOAPxPAP1OAPxOAP1PAP1NAP9SAPxOAPxPAP1PAPxOAP1OAP1OAP1OAPxPAP1PAPtPAPpPAPxOAPxQAP9RAP1PAP1PAPxOAPxPAPxOAP1PAPxPAP9PAPtNAP9RAPtPAPxPAP1NAP1PAPxPAPxOAPtOAPxOAPxMAPxOAPtNAP1OAP1PAP1OAPxOAP1OAPxQAP9MAP1NAPxNAPxPAP9PAP1PAMhyqegAAAD/dFJOUwAE+fwDAvv+Af0G9wX6B/jxCw0J9Q4K8xD27x7j8OsT6gjn4uYUFx0MzOnT5RukI8AoeRJDD6XG2hjH4CcZpzUW7s8adoaCvqg09BW38sEfEYvd3FDe2aPOXNshJDYx0qy5W4iHodGQHKp95J3YRyk4PT48oFmKyzuZOXEgxFbhjj9eRIwu1nSV7NTIK7uDS5e9N9BkpjBgv4G610jfqzNF1SqSTZ9OesrJs+14fI9sskxlJq+uQEa1kZNqScONsGJ7om5fQlpdJVRBV5xYlJgicm2eYbyWiXOxSuh+aS+agH9nb7R3LVIsU2O4hHBoUXXFVU+FrbZrqWYym8LNOuENoeIAACAASURBVHja7J17XE3pGsfTVbaUe0VCpVJSVC65lFwacinVkEhJLmUo14xBlDGMe6lxi4zTjJDc56DROIncL4eR+eAYl8GZGXEcNI73IGXM2mvv3Vr7stZ6f98/7f1Zq/d5vtZe632f9bx6errBNntG/tC87QXxT1dMj10QPse+mU0DMxPjBtbN40InRDqXRQUs7/Uo7X7J6oGN9AAQI0aOM0/8HJQ+IFhGVMcv8kDS+Iz5HnURPyAOOiWmTft+gT7hQ27nKdtCPGogmEC4nh/K8Xa2IGrDbMLVKxnltRBYIChqRjzuFXiNaAR956Rd5bURYyAE+oUEvbQgGsZ8+tld12si2ECH7D5yMYxojdw9R+/CeKCLm5fyH/e0Jlqn2cg8DwQfaBP/jPTmRGdMGLUSl3igFVrsL3Ahuibu8kY8uAIN43ghSkaEgfXFROQDaIzsQmciKAZvd0RWgAYeSieNCiPCw3TN1BZIDlCr6omXXYlQsU5pggwBdfHLqDlE0Bg8n4QsATUw9lEsEQGdZxsiV4AXXg8yTYlImHOhDhIGOJPoJiNiIu4ZyiUBJ2zPryWiw+4WlpxAtSnpZk5Eic8uvAICqkO/nh2JeJmQjwwCVUndYk7ETdSXyCJQAaO/9SHix+CyA1IJlOB0IZxIA+sf8bgKFDGwwIZIB5eZyChgY0SAgSak67v+m0C3zb3Pp80+lHhPu/ViCxsiq0Ae+6LUq1rjyJ2bH01NiPigDVKptlebfkdiAYP5h9V3RQ2/GnPpla/c09zU+u3MnjZILvgATzW53rfszIPu9RWcKFP7d+8W85Bf8J7u6phyNFl048FdZUWI7Y118bS6wRY5BhXs3qCODgCllqqc65luJmfs1yHN4DVeO9RxubVXrb+L0QJdTUYuRKdsYPRCTS1hrqWqcrpoHZbOlCPblJOlvv4BNiq0umioyxdbzQ8i3zTjtEOdi0nmxUpP2E23S6sB9ZBzaim1U7NN05TMyOToupIgLBVZp5N6p9Rv0wCFfYzu6L5wxuoBEk8jJT6asMkmg/WEjeIFUSi2Ba9pU0ftIBMN2eR+Xf4ZiyYIpC5ycVekny5mLdacTSbpcnxPCBROGbBrdwhAE/etNevTgLQPVuo9trkQISEbCgWowXCuFurKp5/Zta78l9SE04VPmwrvLY8gI2hABw4rCPgvZt6pYIQPXH9NDzyr0sDwfftKiormz/csSZg8OSEhsfTYs8K5T4dY06b7HHTgoBjLV3lbYo0p0t2mCEmnm7qlO1yo0d2sGAmnHv+jHUwo8b0Q2QZ6A+8E06H7GOy4CvT0jPIfUnGBH41mwOANHt6mFOj+PYrEwFuyx1Fwfe+DdSZQQXln6es+Ha2AQQU1jzSXvO6bWiHPoIJBUySv+1pUEYBK7jWTuu4dxyLL4B2dAqWue/BAZBlU3r1/JfXJGZ9hyDKo5El/ietu1xZJBpV4hEq9AngWkgwq6bpK4rqHOiLJoBIvd4nrHo6JSFBFndsS132BL5IMqnSPkrjuLigiAFXUl3q7gh6WSDKopNFnEte9DDt4gCpsO0pc94e1kGRQSYTUi2bGsbURc7j4g7e3m9vo+LPfXbnZ82Dxk8TUsXgVROK8kklc91NsI28p58sWHQd0Szkashr7y0uUDKmXiKWwDFzhNjrNyy72zEdtmfRIkrruOfLHnaC8t5TNyzHFHuhjIKlp9+lS1/2I/IGfUK2Vml/g+OQW0EQqDPSTuO0G+fIHfl/lzoHmmdtXomu2NDgp9Yu71Uy+ur/mi/ToQXBFAnhLXffcifIHHqJfrcMYr8jrBFvEjqWd1HW3Y3lV9VB1J2BN3W/hCi9yPKVuO1nEUjLj2aDahzIfmW8IZcTMRcnr7s6yUDrZgsPBXP/dBM6Il/atJa97AMvEeTmn4gmDqxthjWiJlrztJIhl6B4cdwmMvISSM7HymfR1z2NbcOBaCRp3vi7EESUjpN/w2jSEZey+zlwP+UWOE9QRI39I/+JutZJl7PWWcD5ms5714Y748LeSvu7Nz7EMvlYA94PGpWFCUnzESN92EtaeZfA1C/hM5mN+RnR40bCl8GHW95Mu8Hlw2RoBf0TGvyiwnaSz1quH8LmVM++N23dxYWlDg+7/YR3/8JZ8jhs8HwaJit402E4esI7fkV9zzNHtoZCI8JXRYLsx+0XYaSevI9t/DYdExFkqLu422awBMJrG79BT0K1APBynYsdsst6XPQTR/H7fQl/BItEQSIXtZLGCCZSsprwObTAeL7CKhWV02E42KOib0YpnZ/sl2LBVJBgFU6J7jIIg1Ejhd+yWiRBJHORQYjtbk5kKHjfmdzezDS2XRIG/ASW2m5UoCoNHJL+j38bUuyjYSsvF3a+LojDU51kA7TMcKomAx7TYTgbbKgxENL+7Gf1ncEn4tLChRveXit8rjeDZIDMArzUJn3hqbCejFUei9hV+i21rv4RNQseTHtvZml2/jwW/laYGQ6GTwDFsRo/tJieUBMPSjd8JlmNzG4Fzg6KLu1V3ZdE4we8/v/MsCCVoPqHIdtLSUVk4Wj3ldYLcQzBKyNSyoEn3VcpnTh7zahto0htlYkJmHE22k53KZbTld/ceZQunhEs0VbaTAhVCsp9XtZxPFqQSLA6mdOm+S4WY1O9lxuMMskuwSrB8S5ftZkWqBCV7Ba+pSPQDFio36bKd+O1WKSyP+WzY8w32GhYoMyiznXRUrUC30VIeDZb8fodYgqRGf9p0z6ytWmQcP+ZROnMW3d4FyVbabCfxqobmowE8fkJmQC0B8it1tpOeKgenlHtHMdMxqAIWHiPos91E9dvqmscGcz5N03uwS2gYWdOne4NqLAHVuMTd9zXZ8Etg7KTPduI6tjoP8hnhXM9jcMMfggmKOxTaToZUa87E8HQPzkurBZ2gGGbcdczValYrftKHs+8L20IywVDHnErdU+SEYubeP9hb3a2ewjVQpnuwu4Fg6ECl7eSF3EeY0OPsgfL9yZ7z9Hu7NhBNEMyl03Y5Oxk4xBHS/x+KHljvreG6wGrq/gzCC4DZdNpObCYyQjHZ+PW/jxukKFptY1w5z/MPWbpPhVe1jdofX1la7AgxNYIjpbaTUF9GLD59uyxUoniGZl037tscyA5PO72bbYthy5m3Lpe1fPPKQdlKeKkhrtGqe4cWjFg8f3sRnqtkj0ivjIfGPM4ri92b8uvsouvnWlk61bPsNGx18omDMW4dqvKw4D6k1BhbabWdBDDaUdeNfPtBmNKiLofflhhr5o8KK8b28hpkPLW2k16MYJzzq3ionKt8C2DLoSMbq/0vmv4YfQs0ytf02k7SGNHwfHfJDktWIXS1PFMWqXOeaAP2+tA0TSi23Xg/IxwHK6dQ4lV7zckxY8octfwt4YVdIaPm8aNYd4u7jHD8vfKz1sdUjeCwjBuR/No3uG6eCRG1QibFthM7xqKP4e2qD9d0UT2KDee32zCY2+LTqphJ2L5JW4yh2XYSy9jUuu7/qj40C6pXrVA2TDx4pk91pnRNXc5OxT6U2uQ3qm0nKxgNYFqFvv/UnkNndsus2dturNmkpMumX+dTPydj/3htU0S37SSdcRux+8/NrTtwvqN26pJ870W7glPPD7zsMSG0qau965xwl8VLRiYtfRaShb34dEMbym2XU/770Qcz6RtQoi4h+tKu++fM3zvzP3+uvwPNeyXDENptN5nHXHP7sDCg/1e4w5YIe2m3nRgvYwTl5F/2Cs+900hUSXXK3jjv85jl3lej+rhnrtnZLSnm/NTJjpjp1NtBve3EilkHFv3X9aJrj0TREalmREjhx4tZNpGSxXq3y6d7yvNT2E5sVjPCMo+xPJr7k6WwRe8y9LvPVChV8wm4QG+vm3uQnZDWzGbXQw2YlQajhNoipk5CzoHc6tQq/HCyHpW2Z8H1NzUETRiBOS2nhl1/dKrgElhjxvhMDi9U6Qce8aLPdn+o/oYwZqejJ+byvvjPZUIqQj+et5N7X3LZuGW0FdQbmkL1NyxyYITGU/5axPpt/QSRuUbLzgTzHfX6dv3o0r01TH/LkEGM0AxnmdzQT0/W9WzesLxAmVqGbZ5E1WJxLESv4FvmGlIXH7YvB49voruf44Rpm9Q4boOAifTY/hCev6OMOU/R9f/snXtcTekax2u3T3t3U0lFZXRRpnQTug9HJEnp4kyFbhiKjhoVopvGpVxzKxEyMnSGcQslRujkEk0G5U4YlzMYBx+c43xmn3F8HF323muvtd612utZ7+//vd/3ed7vXvtZ7/u8zyO75qnGstrOOGLtnub6PWrD1S6a8oV2V4z5R2V2PEHqOkpeFFBRz+4Za9KiIGaqHeg+MeIH7Ycx5fJwFzbI/cTI2FPB7KyT4ZiCUAZNt3rBC9qLMeStcJdy6LKb4HGqvvLkeIbXSPv3XUfVmbb9Kh/aK5zEjLeSp5QjlwHEgXJo00umDidV57jEsZOWbZILn/YJGPHWspVyr6hRkX0r9SXN11C/tlqXTXLuxqLxruDzCcow4W00Wcp5i9EgBTc3bBtyvdFsxQ88u2itO+vGh0UDp30eBrytFkortv6zQPGAYH1I5AJtGqFL0ovi2LGizjG+Rx1s2qMx3+20UdrpYtRGUt8hWP12+alV5HKExQ4H1zQf6CvoXOtDQOfOOGG828vygbRjnVgK39Qz5n7esNzp0UNVZTPeP2le1u5X4UEbdZTD+oQugGkPwHR30JBkaZ56RuOFUaRn1TezMiH8XF5O88yZISHzG845xt7/z2QvE+XLygvqDpd2Awx3R3W7Js1V3rb83ZeCIhGGW8p+4iWppzzD1XlhvQ/coiLdMNvSdFyqswYv5IXxEWBrinyGyZaqJqldYbr48uLx7mwBlHYvDLZ0VUovqhHNi+j9GNCNyIWYaxlaLb2pr3CuMQ+Mnw+Tdh+MtSxNk3GQ7pDAA+NrQNLuiamWvRN5RobTvoH/jygYDJF2Zwy1bImKZSR5qT41gW77RoinTPhiqlzF6svwW/8qHeCmVwCk/RgmWq5iZN5MGv8W+MkcwNA9AQMtXyZ7ZfrOH/YfY+BocLQ7Yp6Jgvfhsjefvwbdg3MZONoTMc6EipNTQG7GSsCGp0GjvQDDTCz7eXI8OGcP2PjdEloh4CmYZQWkNlXeUfrSbQKgducAoz0Eo6yQVsbL86KDbz5IqwXjYNH+CoOsmIackX8tZt9qiFavhUV7C+ZYUW0jaDU221ELnM2iB6Bod4HMp2BxRdX26qIJtf96PumEczbdt8nQeQTODD7ZV3m5DY1Ld6ldscp7tIe1jcP4wYdyp57L1CP82AhQtF+ASrruqLmDNdvaqr/qzVp7WsQc1ifyZ3J6T+X70e/IK9osvYxvRlreYrmf1fCGRPsbmKwHnZJ122ypiy2Tj3cVFYvzv6op0Y/e78YMgqIZo6vXyfnXOweJ9jUAURclyG9+t9/Xkvp3pyuQG+hxr1wpHOHVtFexyux9XLJlfUcPSHeyT8GD3W0zodXaddRvsVjWK+JXp+OdvUcTNtGfBAfCx0tkfI8LINqzoLGuNVexwqMrqAc0rxsVGuG0S0SnecH9VSFpFKZL/0PKFsOh/TtgsHspXKdWfJ7yDXSFW7eY7l7WCWnwMctvUWJBXGcm7esGwKH9ECzYfWxI2G5RrEt1HKssRQcZmLXNkkUH6Pjdo3H+aZQjpVSfIxzavwYFewTJNKZ+btR3fRS/uCn+93Y/XVb+2NJ/o1v4KPnLju+pn4Oh3R8S7GGkezsLd1KONESDyDxEDUqbyxmtvJQfW41ka/zz8A5fnQWG9qWAYDf+lsrPnXqvOkGONamh9EuXr2OkiZJ9wr1odO+S+9o/AN6Cob0REO3/oOSB7nto/L58yRbEFd66ezEG4UNey60qEnWi4ox25RKNwRTKs4ED+68UXSAeTmNQvWIKNx4sop4VZNKu0THEuaqmUJUJKMa3a0VyCArt+mBg19lP2QlpdJIX9SbaUBs1vuRe02UzCqlqomnOBScPxTNIxdC2yTNg6uSJwVwze0fDC3PMaUUTBY3Uh7bwnv7M96vLG/QUiJvGOjtOfHOtHwuBRUAb3GPABO5QCrhrONF6fdlAa3C12Bm0F8IiPvrQ+bvDXh1OdD3w+rJf0NHMIL9lo46tTWyY6HIz7cjg0QZsYuHRZifSGgrt14HQ/pqeG4KD6G71X4LVn8u0dW50GRSr3IHQXk/TD5qudGfw2Y9JkHAvDPxk2iQoRu2AAbuWPl1HiH3pzyKzyAgO7tc+ZRE4Q7FpGQzaVyJwxV0EtzACT5QIoaAx9f9W9YRi0iYYtE9F4YsVSE467Q7PhtHIRfzp3A1KSch3MGjfi8QZ/oje2a/fPqIJgI1e9tBeUyfCoD0DjTcyNqCakN6mfaach+PvH0P3X4DQfgUE7OqogmXaO5Gt9deqsmBu0zEFwdGdMikXBO3TkPlD8wTSiYn6NqVx+Bmv/5cPZvgBof0ICNoXo9yKQJ5MYfd6+ct4buIx4IMF2UBoh3GdYwdKl9QzUuGup2filRInba7xsfZDpAjkKrYDpr2Donozl85jFfRVcfXD3530OcLH0A/NkANg0C5Ug0B7BOIlZqH6ka75WFu/ihHhiQXLlbopwLD/zRZK9VN7CLSHInZKl9vszX1UH6Xmw8Lq/SShlNkAkSiD/mi7qAc7MzcpUnZAat5P8yEQ2itABO5dkftlwRY25h3+Z+WPdd/3ua8FQjuMzkuP0DvGoIHxWW84ywVCJvwx05+B0H4PBO31TLjmiBmzQcwFbiTTCN0lkp1AaIdRCXI5I74xbGLu2q56A2dqRV+SSI4Dof0RCNrXM+SdFIYKU4vecqjphaYlmoxqJRCMGht6TKWUC6u/Z2C6lYWcYmSX5A4Q2lXMQeDuz5h/+ocgziQQHfDnGCK9erRAod0NBO27GPRQ/DmEtewEqRy8rJ0KpkPHRRC0uzHqo9F5iJ7v11tsuMhI8gUotD8HQbvoC2a95DHcjv4c/eq4eoEvBQrtZSBolzxj2k9dcj1pTTDb10kFq7M1HgbtK1lwVb9mqjl05nkpYoyaEkioC4J2DQ82nPWnlKpp5BMEmoHU3ICgGBgPd9ZSOW7tDFK8f43doDXjMGJKpHAYtJez6DKjsy1x+YR7jT4/1e7HeCmZYBTZkEjYPos3HeOS6mYnLZNmyKwRTyY8UsVoKaEGAKG9cyrRao5LeVk098aTkK0/hPi2PL30MMXJADOlvOoFhHZL/DDFIpYZENx/w0uJRag9QGiPw0uJRaipQGgX4R0QLEKVAqFdshWvJRaRDDWA0G7cHS8mFpG2QHm478RriUWkRCi099bEi4lFoDVQaJfcxYuJRSBvMLRvxCdMWETqDQb3GryYWAQaBIZ2L55G7pqNsx9Xt2wN3+M8a0tYtr2lpb2X+2TP9ZtuT7pQd9AJv8601l0wtEuqebZ0Rpsji109e8svaqZhti79aakNBl0JAnfjaWHuYfZ6iHLD9Hmzag4v71SEkandZ1nZUjIQ0945gbtOjOOw76IyPibIavaZHTmpknYxpxt8WC/tOYsOUFszDZ8pZV15Tnsq69dIy+8kS48mT++LpfWYN/4C+FoJo7Yv60bL+erOz735THs9u6x71ljLfeVacYLGcqZCXiiPmgQTJEuw4dUD3tLen8VmY8Z5C4gn1PXmYsqpkFFQV6nf9nKUJbYX/+LAU9xZqwYpqFK0G+GRoxSHsAVZzyLpzkL08WTlGCEfab/BEuyDyNSbGECxBdpNeNsvwyYztCBmxwP4Rzs7PbHzH5OcVpoVlWFMYL2odjkfx2ROtlY6727BiK1YgD2OPIX6zVSqSR+AFMFUDWF8gyy2kGe4b2Ue9jxK8XShD4WhzkDZV88KYifCPLaAV7QfZNyhVHv3aPuS/x83BxGMBkxl79RPNKiRR7QLP2PYnSepz+0s+dK6sQD2G99pSdiUYEowf3Bn+ALTFDpzs/EjPV4Rx5djzlWRhG3lV/NmP7KEUUf+jd4euPBHsgMGcro3wDfOnZOgF7GKJ7Sr2jHoRS/aiUhFApJDzuJuUndJ53V+EzUZ4l0ZuppOf3rzyOaHVHH1uc4U67r5Xl/29fHxiVkYaqkn883fbC8vaF/FHOwnUMzvW7JHAo+5uArJ6xD7Xi0s7qftuaULhlq0PWDpahpdGnklJ8HTsv0LQiovcuDHMgX7SGsk84snmSgS2I9zS5B0DKXf7Sp96x8RB3QGS18uOpfZqvuC2Vke0H6HKdpzEE3QOoLcuAs5FoN63EaXiro4Ly2DpHeT63YWfCikpfECPu0ZDO15CZAllnYvZ3UniF0Z3RiJaifRNZJyz7WlLZdXX+UB7Coq65mhHeH1CsMl5IaeyBnfiycgKqNv9cMM3MFPEb1ghvYShFM0JJkEXMMR129GsxFjUoD7sioqTXMmYO+pjXKOweSSxHQGcMHxvdKRpPT6pVlgiBXXfCZod0Q7xwByOzN6t5Q/iFmTj8DNgVW4WQM5nWbiPbUW8STjvUgN3ztDyZ3+4J8oriBdMcT4ktV9BmhH/nDdTy7gclfqGllGM9XpuzisRhuzS14MNKURoF+IzcakZhATrMQO/y971x5WY7bGd7vdTe3dVul+IZSK6CKJLlLpgkRJRY0uikiGNEoiTB0UxuUQRYrpijGUCXlo3O+DmBmN25O7cAYPc7DPmXlmzuEZ9t7fete39vd97ffvWL/1rt9e37ve62gMSUiXlJ2N0QT/mI5VNKBsEFKCUMXUr/woDF2rLJuVPU1R5TX+XF86YEZRe2AMYGYvuCfW8C9nmLKxI7roYy9hiqQFpx81EAMYeLv3DIQrd+94JWUhgn14aiM9OBupoahknO1+Ch7cMA9X8hUmxiMws72IHpxqeyg+H3wYpeaUH8GK1SrXU9IVKgnsYDtPn2Ks3T2UOToWPIbfKeO8lVyFi48JXrYn0wW0J8V8/N6MaWq7AN7mLviqQElVBVjEsuQibUDHU3xRWyxghH7PT4YrNTBFyVM84on3ci+lD2kWxYYr/HjFazdkOx+sUod6bN/Htcsf+CXM8aruV7kkuru1ZU2N5c/m0XEexZPPBewLD+rZAeg+Gyvb39CI9ATVvB5Fj6kxDoAb7PbtOIyYmCfXXvnKBGNRmZTvasxptruIcbLdkk6obVTReOkrULFWRRZgdZo8B3ti9E/efEgl61Jj2tQ8Ds81uIn1cqf1c3idKppMhVm8fRvhlXjqc6C0W9y2DsmUckjkamMlPaxVHTPohKpCubrw5xmKUKlmQzW8YENrDSx0qvnF/BJI9lmiEyfpvg8n2+mdlNGfch6b8DFxfdoeioDrUdVtOgjEloRcMIacoxxMLRYswcj2QHqxxlD/EJUSzZpx2XUZQx2ecOtxCAjDBx54TjPVj3sR3AaMbO9Kc11wli5lSNGb0E2nUEoV/X2bV2Ko1pCIw0D2+twmjPM9ag5xbtz4Xox0p3vMyVGERNnHqD/B8RJthz2zVy+QY6hOSsa50VgUGJEPSuuN9cI8H9R6F8d6eAwW4lNOPt1g1yOAGo7YX6jPX++EEZWH/b7p+/FjF3z767XdvTGp7/I2ELcm0FF9+ZZjSTr++FQzjHawXigGFmK6rGB16vvmdHThLP/sY+GuM72Dgt7Vb4u/XXSxOJqPTXf2V0DmOu8XOrj+u3touz6X2K4/GptmVGkfgtRtKQquJET7QHTLQUJEhDtPwFwgto70DfgYy6mR4xhndbymHexApAGY5stR1/tiDZ92ri/dAYzLGT4yofW3+JRLbcleYdNLMf1g16LFKSOtUBe0+XoQjUzSWHrVDKqSExhG4Ap93QJa51Xs/zW+uWjO7pzoD3NK9nDIGemJzWulSqCjSzjaN9syD3lFtbRAeu5O7b3t8LSUmOFgHL4BM0R/s+LMgn661NbkWBhnryqRlMVwh+7HsJ0fiehlLarLYzD6mp3/NQv3DPGx5d9gcGcL8g2gyXwJsvSiFnLPdXMId+h+ENcR2pFAm4QIjp8AopftvOQqTEb8mKnf4yknnL4UiCS3teP1T7X5By66byGAVoTcT9E8Hvje6rSp/bQdaJavwYGw+0MxKULzgi7stMRXRbwOKGdwsX0+CbQ+6FlPHukYrIfpZwJKl1C+5jVyh1/JcMIYnOyzEnhYpQN5HVPcMLHdkkj3tsVG6Ag/w9SHSBCz8NbsVwPMZQfr+SUjt0456t0LsxIqgB9kiwxeRxW9MZjofooI3HBAMEXYMhQnFBXPtWl52UVn3XZe9pg0bUxujx6p3Qe5x1WNrHYs8M+OSov1ocVbrbMd6og5z+u44o0pX6YfGbjOIM9fkw/bj8sWmtdbqs/ryJKP6XIn1MwlEgTSoMmG1YflCu3i2dTBpzZpvsTD9n+TgSsCXm4mBXPZe1ZXoZm9dbyOLi4RWNhuQqg3iQ003KPu9hs7D0p0WKIkO1jW4omP3yAEN9YA/sjYxsJqBR9wKd5zJdf/K1F4nJCGhODex5DlWtJmxbJDWlYC3fN3Sqb/IeVY6L6DFNw6HGh13Raw6YiOgPsyXVSOFf7Td1yIgz/mxOYDrcGUoOXMmg5ZeWBH8Qtlz+C/pP+XONizjxTcblWY3KZaE/N6seF8asE7LRQpWf4/ibHHcbkT0+hAc2wZuAaB95kecNHcDt5lVS8lx9+TLG0MzLlNDC4Gx8z/xSjwFJOLdFTAnkfJBislwz+QExj6XVmS69H1BG/5se7wfWYMPRgRfIKTObW9iZZVNCdc3LnSI7NyQOGL6+tvNYRy7oV7CwNpHpGD6yzBLUsWuZI3bhc/ldEYofNl8MZq5O8vqRLU7Fb2keZnwc/KMzw5RfdDGIxgW3JwD0vwi8ll53RyU9Z7VawYJJFMlLpglwPwQ0mXE49t60Gp4w02NNVzyLEzH04XL4Jf+BwJLRJceHMh/Wa8Snpd3Kb4QgAAEmJJREFUvz+9iiuk/JnxUvB+1OVrM2LmbCfHf2Z/Np0rbNe8COcKwebpIRESukR10unXsbSFD/Q/P/TwvboUg093TXexA29F43t5bo6oYXK/gxx2cKTvhloSWLmTyBkCvGViCZ3CH3f69knMzgw1p/jGyg8jRRvuffKvR42D78JPNqiURGpNwy2uDOUG3Q+T0C42SVOV0C726wqa0+ZisFf1vnrdmPP3UsPITzdEGPUWDn++TFxOW6nHabWTbThB90ioeg1INtxplRASofvLFW3zslJQWN/p240/lBfnflxblz797/pnwnE7ynIdHndD8zwbrDfkAt3BxkwhSbjbJWRFtbfdj9eLfji1cG2KjCY1Ap97JzMuhHnlpEqhU5mUziR6GIZtvJTRVNXmOvrXMfUMF56q4ITIdpI/zp0ShYnQPvrtsGqvqWeb/NdPca5tq3Wuu+EfdnZqYPUb3xJTeV59SVJ+Mfoj4QifSb9/Rc6w4a4PudA3bz1Qx0YkldD5rYStortLmvnzEL6AwyipqnMdC3bWtnOA7reBUfkckjGIoeYsJXt3aeMvVHbDF4iQ6jlxicSxieE+7Kd7FLDvYQBJsItHsJLsOdJ4ouYIX8C6rzStVVjj2UaPevbTvd4UpAItomVBaeosJLuj1NhVC3yBIVJbnujMWH4sOyFyZHdwLqCqH/vp7gSLU/YgmkG0mn1kvyF1QxhmYhnJOce92+KMxGLY3ebG/oZMPrAEjQNERyo/ZxnX+VFSt/MUvoIJpa+r5pbWUsDoCo+erKe7PuwVU04U7GFWkd3+ndTNPMDg7kmjrELB5/NzUZdzP89+ayYbFJe/RRKqTjGLyL5Kem3FXXg6hLACLdQyYyradCuJ9TL20/0kpOuguitJqHrscbsHSg/CuurCyf4EWY9ddrgjLWn5G/vpHgrhkOk9klBDxrKD66pPpe9jghF4CfW7oOj0XaRDN+XA8GxRI0DrqUQrPc1YEWWyPyJ9F9Phs4GEd6GqDC9DWNaCC8OEnwC8U9OIvtUH2zOf7M/60P6T5W+Dq1LQjvCjE6dzgO5zAa5I31Ekkd6pYTjXNa7IKHXxgZtjwZux6NIKoYxN/I4DdNd5hO4ksDMmiXSTKaPJ3nW/rCcivFTJNAuXMjdT7xw+YiYH6M5Ld0fWfqULSaBBFgwm+0RZk+z038CzVn7Bp0xjL+oflgVcoLthAbL+44iWdHkz9nbXvSCrikhnL3iRMrx+gdeUnaEGrlygO68BOc42NpQkzlhLZpLdV6Y7VjAZvMhI3M8k71SqELQ3coLuvZJRs+V6xJLEucyagVxXfyQzbUhzK3iVWfhbggyl3OGDH84JuvMmTEI8BaM0kjD7RjCO7HGbZMMugC6ilU+HNjtTnkGnfpQbdNdxRhzQpPqYJEzPOIZZ7NfkuHMXQVexWE7ToVOeDKHVyg2680I/QzyLrSTbifYfxiSyv3GSA3Ii+PMxni5tqlE3saZwhO68hWVop5FJsjK70xrGcL3rP+XpBR0AXcaRxuYuCD1XWrjSHFUlG82nbUry9aIZwAyuq7bIFW64CY2fXqJVmwLqjvdqzowCsUpGq9FuIVnQdVSbCUaMfLEe6E9zlRPdNxx1A3bSXK7QnXfeC6kFx7Qgkh4khadERpyQDymwCFVrNv1vIp09lGHVbOQM3XlBSA9Bdf9u5CDavFEo14fky0lCYG+/CCItxHVeUE+BC+vEHb7XIzVum0awvbvKIsVx3SRBznQ4tXOwi72RkIGsEkgdnIM3d+jOO4IyI0UjiWDezLYhiuE6/6y8DUZ0vEALfUkux1aAEOvVWsGlUX4L+yGckDib3BfOtp8iuD5H7swgw5egD0gdySiGZjKKJ865M1vInOElE+pXexDeq6PPEJtHqFbLJ8x17QL5B61ZgXr2VJPusIs0ha5rbRd2sN0ns1T2yQ0+jcCnzJ+IbeLOOJJcFydSMNTGRwNWWqIAn8cDpBaE4kXs8EaaBWtf6S/zrzyLEApCq/aT2oRKnS4prpdkU5m/NROQnGzfqpBo5Ua0BrNaBxvYMF34qkRi2Sy7x50oD2H0m288qXlkx1cS4fq6u5QYeAzdxhJPUVSo8h5qgukYvxDGs13wuxngLk/MP2sN9cPr7kfqyZ5Be6hJ3HKHmmbR3aPBsxXo6eiJPJmbP3nzf9i7E78a8z0O4J0Wp1QiJUm0kbQhSillSoosWVpcmYoktFCTEt1etsZONWiyU9mKoiy3JkuRwU3hNbIvuRfDMGPnuue+XnNn7rVUz3mec86z/Pq8/4A65/v79Ov3/J7fwvcOfuLvI7Vem6WpQ+1i+o90J+LY+R7tVhoqMusuj2hOPXRlfJKfwSRuO0m1lczPwN5YYMvvuE/+Y5Zcqo+ZlKtHuwI599m5e9PznKJum7Txj6X7Ydz/ynRJ5TQHziORNIb5hNU+fqe9zR8dtt5tqdaU6j/qRXtKUmXNXVZOWXJ11JB/1I1zF6jR/iQpDIfs0Td4cVJ6+0kMr4dYxvuzUd3//GbTK6Ubdhl5fUV/Ac2KOjZmqXpHaMt3sO6Yx+D9jkcDo18mbojhzbjXdTeDL7DktZoS7/1/PeoHaU8LmdCHwb221omHFN9zTV0otyM4LG6VMXopXMToAD+LF/y6rTGe7jyXXuIoIUy6a32U3INS7wczev0z/WlunSG3tyh6bq1DlhxeN2ksy3Zn1tGOSmDw67QPjhXxLhchb2iMZwZNdlYSBtePHj2106T/C21XdDSHfsuqfEh++06x19isjTSRJerjk1MZPyqesaA/gnHax9O1VW7HpTy2cnaWYFbLKCm9/eSvlNaiLtvw99FM5mYzA9MPKbA3EG05x+jkaPHi5GBL5r/2Av3TwKy8RvI5Gu6TKJt3SnZvJUHZ9OmirrM055aLvP3ojlVVrCP2uSv05bhq0uAgWnM0Jn7eZTINPXtMpjm20768z5L/4ZhbHNjkC9aNjlnC27HX77Ovs4v+4ZaeZV4ndraVZkg87vDCdZvZmWlzGFvoJMX+VZWAl9fzZD1hUev1NXqz+DMe6gsmIF0XPKm53P+jEa/muF7nnsV0VxIk988niA8vYvRzPOac2vtticvoL2OvM/0rv9zHb2OqtVj+aloT5/u/Cmh8Alxstszx+tmbclhFLrpE55VMp/qTsUKMSQfLbb4ZcZsfGOkqCdq+L7pgR3uZWt9h7nL3mX1jNsT0nRV3c0J3rt+aqFlmjL2R/1PNCZ+XFaE+gasTp70+M7NaXrtoTX+RPuvTQ++tVVMCTn15HpF2jS3KItUg7raUTy3GQ/xTLVEvHmhn3cj0+BFnFIbqn8aGKCmmpTVGV3g/nKCOcvGFfWMvIQ0j3VCZZvj6Uy01bvthoHfwu/YoFc/EqDS+DdMIpWlcaeTopjtzC6uDR9J/83VAmXjqShOzwrlczx+Ius11dbV3M+VZvT6/a2Po9KXlFTMSvdZd9bVVRZz4bkZTbxj3c3S5lGlIVtpu6/8dGmMQ4BeZtZY3QdI9sG2te1Jp3y1VszKWG3UUIUCCotX06SwfTrN9DFrXM0eDGn3+MwirrUZbgcwcmlkF1PMxiwP4RdN2NfvW3zofM3kgK/vmFg+qNOSx8t96+Qsp3tVovFqFCT2QTUjzG08tEhW9F2tUndQ7o3LWYagMMllF9a4k00txIxr1H+1oXUIwJhj9O8iiknKXtdipViGBt79Df7N7UClaDGRQK9UmhIIH8v2tnnVOzHYa+eBtL8jgsXQxG/DtVXld9GZfWy5mlnXJ8BUpWFEIMpD6IG+dIX3iZH1SbNM3cSmzoItzLt79B6IOMj4svqfTufod/5FpH6+VsTdsKKOkG65fWdYRLQVyQPe+2FaZt4p9aS5jMXo6eASzsxuVhxxP0kIjgdzibsfg6IzFod7nN0ux17J7/KPIy0zPwLBJzmuH9gG5UrVjmEaJyezQtGent7wb2eOTuXD1HiMnLjh9/0h9prGEMYsf4jDBDgro3RMkshIbmA0IsLa2Xtp/gJmBHA4kXf8c705BQY+qtyS8YjULbQKKi3skj7KuMQ37I0ChvHkTduU8tAYoWIqYJ2n/Bm0BCje/FS/CHoGWABas0uNB2LWnoiGADRlduE97CZoB2FE9hvO0v0UrAEuGuXCd9hA0ArDFNIrjtOO0MmCP+gtu046zV4FNwTpcpn0CGgDYFGfGYdoPof7AKtvZ3KU9G+UHlp9VIzhLew6qD2yr0+Yq7s9RfGBbkgVHaR+ti+ID25xHcBT3CqxuB9aJfuJoDbBPaxQfWFe0h5u4L/sLag+sM3LiJu4G6ejegf3RzGANbvI+7hjyDqyrsuHoYdXiuieqDyzrtp+rmXeV3Q/boP7Arhvc7eDrNKMMIxpglasVh8vE2vqc7o4mAPZoPVbhchWweErhWA+0ArAlJJrrLXyjv7tS1RUNAWxoX8iH05XMhtTU5i3C1QWgaDP78+bwPIOcIQOPFPztfMycB3OHdcDB16CA7t1fRcJLysO72GwM+Hpnr8MDkyd5PcoLMcJ1HiD76N1aIgwaFi7fPa789yg0GcgwOZOvKRESsxULw3tjpAMMTVgjERrjFdkLOqDlgIngaxLh0S6/PQfXrQJ9/barSIRoSWBqD7Qe0DVxnkSYNCvOY0wDdJ3qLNC8SwwSSvHYCvR08DYUat4l4726oQGBFssIsWDzrpl7Ew0I9IbvayTC9X0VGhBoibEScN6dNqABgQ71MzkCzns57twGWlQrxws477tj0YLQYvLe6ghWywO9vIdbCzfvPeejAYHe+H2Hk3DzvsYeDQj0xB/UEGrc9Z7g9SrQZH90qFDzvn4kmg9o6ncyWqBx75SK1gPa+oZqCzPvyaZoPKDNI12Yb5yC8LAKTCTVDBJg3NtiNAOMtH5aoim8vL/HXg9gRje8Qoe74CqbbXW53FASuullfVh55jhj6ZYnb92GdgOmgU+1Y3VIY9D/X1FHC4qfz7HX//yjiJxvlhWvtHMyofgJT9FqwJioNHGKote6mDtFpV35Zla1VJusO4ZUJvo1fRus+AnaDGThVmmniH2sg4Iqtqf/luHJ5OgMj5g+L80b/7HpaDCQ0YVLCfI6NlXPuj7yXt4ifdn/Cp/6/6r8Ze9+Bq0Fsut6NfuVLDfKG88e6F2Z5CbXz2Q6M/9ng89mIi3RVCAfHoeeXXQxphdzncUlky4lDVPYs0XG3rCPL5d6g1YCeXKOn38notd4imVkev3XBw7OKrVk4VA7rfg75X+ueRAfQAOBAuj3js+rTMleuDoidH+D3/eXwxoObrJb7X895dKOOdVsbyvqsarwv9tSvNEw0CL+6QQnTJcsQx2gpYgtxn1m0HJgAQEAAAAAAAAAABMdL52oX+MyJWBj52smPa9ZmI/ZarV+t93R23Wp8RfaoDxAGOfiw8pNrGG3mXci/5+9VVEjIEi/+X7N3P9nuKvmGO4OBoJ0T/m62YVne+pPLkeVgBghFyluROtcswpHJwEpHLzMKVbQDw8s0kKdgAyicMq94F3SMKQBUhTtpNwjNS9VhDoBGXZQn/VhfqUd6gREUA8fQJn3JQW6KBQQwbSPAWXeTe61RqGACJ6O1GccjBuLOgEZqqQ4xsmvGnUCMoYzk1tRxl3zPpbRABl8t1J377OxORUI6d4LqQ90N/wFdQIybDCh7t5L9FEnIILbCOq4R8eiTkAE0ULquA/PQ52ADKcMKeOuUYcyARl8bai79x+wvQnIMDWTOu4z1FAnIIJuGHXcfbAOGMigFUgd9zd4rwpkUE+jjnsCxu5AiALquG9HlYAQ96jjjltUgRR3KVfNiM+iSkCILMq4a/qiSkCIY5RxN/dAlYAQxZRxH4FpdyDFDcon1cEoEpDiCeUKsQUoEpAinyruZsNQJCDFC6q4b0KNgBjbqeJ+HjUCUqjnUp2b54EiASlUoyjibocaATG0KijiXoUaATlxf0lxDAGORAVyiAKxGhJazqNqYbNpN+6GEgFB7mk0F/e/o0BAklVtm0l7K1cUCEgSG93c4e6oDxBFNwpvVKHluNH0sXl7bFEeIMu2oCbjXo6Ls4EwouvaTcV9NaoDpFn+a1Nx74PiAGnUjzV1hQdOugby9EvUaTzuV1AbIM/IBJVG456IwyGBQAf+s3Cs6f2r4GjQjIJhCKLPeWFJ7tqbR0NmFAxHIFGNZTGB77HRgBkFwxMU/3bE3LlnOhouo2B4Aq7+30rox0NuHw2WUTBcAUdr9ZbbqLeQBYyGyigYxiDjVvuEJ5pBWo4K1hFPFi8ZmYEAAOIK/kUEclRVAAAAAElFTkSuQmCC;" vertex="1" parent="1">
          <mxGeometry x="263.43" y="220" width="73.15" height="50" as="geometry" />
        </mxCell>
        <mxCell id="RrAkKvRdYdzd3wH-LYKH-4" value="" style="shape=image;verticalLabelPosition=bottom;labelBackgroundColor=default;verticalAlign=top;aspect=fixed;imageAspect=0;image=data:image/png,iVBORw0KGgoAAAANSUhEUgAAAu0AAAIACAMAAAABuqIJAAAABGdBTUEAALGPC/xhBQAAAAFzUkdCAK7OHOkAAAMAUExURUdwTP8/APpMAPpMAP9VAP9/APpPAPpPAP8AAPpMAP9VAPpPAP9mAPpMAP9IAPpPAPpPAP9FAP9OAP9VAPpPAP9IAP9MAPpMAP9PAPpMAPpMAP9MAPpNAPpMAPpPAP9QAPpOAP8/APpPAPpMAPpMAP9MAP9NAP9PAP9VAPxNAPpMAPxOAPpPAP9LAP1PAP9QAPxOAP9MAPxNAP9VAPtPAP9VAP1NAPxOAPtPAP9KAPxPAPpOAP9OAP9RAP1PAP9MAP9RAPpPAPxNAP9OAPxPAP1PAP1OAP1PAP1NAP9OAPpPAP9VAP1PAPpPAPxPAP9SAP9LAP1OAPtOAPtMAPtPAPtPAPtNAP1OAPxPAPxQAPtPAP9NAP9NAP9QAP9OAPxMAP1OAP1OAPxOAP1OAP1PAP1PAPxPAP1PAP9RAP1PAPxPAPpPAP1PAPtPAPtPAP9QAP9NAP9PAP9OAP9QAP1PAPxQAP1PAPxPAP9NAP1OAP9QAPxOAP9PAPxPAPxQAPpPAP1PAP9QAPxOAPtOAP1OAP9NAPtNAPxPAP1OAPpMAPxPAPxPAP9NAP1PAP1PAPtOAP1PAP1PAP9OAPxOAPxPAP1OAP9PAPxPAPxNAP1PAP1PAPtPAPtNAPtMAP1PAP9QAPtNAPtPAP9OAP1OAPtPAP1OAPtOAPxPAPxPAPxNAP1OAPpNAPxOAPxOAP1OAPxNAP1NAPtQAPxOAP9QAP1OAP1PAPtPAPtQAP1NAP1PAP1PAPxPAPtQAPxOAP1PAP1PAPxOAPxOAP1OAPxOAPxNAPtNAPxPAPxPAP9LAPtOAPtOAPxPAP1OAPxOAP1PAP1NAP9SAPxOAPxPAP1PAPxOAP1OAP1OAP1OAPxPAP1PAPtPAPpPAPxOAPxQAP9RAP1PAP1PAPxOAPxPAPxOAP1PAPxPAP9PAPtNAP9RAPtPAPxPAP1NAP1PAPxPAPxOAPtOAPxOAPxMAPxOAPtNAP1OAP1PAP1OAPxOAP1OAPxQAP9MAP1NAPxNAPxPAP9PAP1PAMhyqegAAAD/dFJOUwAE+fwDAvv+Af0G9wX6B/jxCw0J9Q4K8xD27x7j8OsT6gjn4uYUFx0MzOnT5RukI8AoeRJDD6XG2hjH4CcZpzUW7s8adoaCvqg09BW38sEfEYvd3FDe2aPOXNshJDYx0qy5W4iHodGQHKp95J3YRyk4PT48oFmKyzuZOXEgxFbhjj9eRIwu1nSV7NTIK7uDS5e9N9BkpjBgv4G610jfqzNF1SqSTZ9OesrJs+14fI9sskxlJq+uQEa1kZNqScONsGJ7om5fQlpdJVRBV5xYlJgicm2eYbyWiXOxSuh+aS+agH9nb7R3LVIsU2O4hHBoUXXFVU+FrbZrqWYym8LNOuENoeIAACAASURBVHja7J17XE3pGsfTVbaUe0VCpVJSVC65lFwacinVkEhJLmUo14xBlDGMe6lxi4zTjJDc56DROIncL4eR+eAYl8GZGXEcNI73IGXM2mvv3Vr7stZ6f98/7f1Zq/d5vtZe632f9bx6errBNntG/tC87QXxT1dMj10QPse+mU0DMxPjBtbN40InRDqXRQUs7/Uo7X7J6oGN9AAQI0aOM0/8HJQ+IFhGVMcv8kDS+Iz5HnURPyAOOiWmTft+gT7hQ27nKdtCPGogmEC4nh/K8Xa2IGrDbMLVKxnltRBYIChqRjzuFXiNaAR956Rd5bURYyAE+oUEvbQgGsZ8+tld12si2ECH7D5yMYxojdw9R+/CeKCLm5fyH/e0Jlqn2cg8DwQfaBP/jPTmRGdMGLUSl3igFVrsL3Ahuibu8kY8uAIN43ghSkaEgfXFROQDaIzsQmciKAZvd0RWgAYeSieNCiPCw3TN1BZIDlCr6omXXYlQsU5pggwBdfHLqDlE0Bg8n4QsATUw9lEsEQGdZxsiV4AXXg8yTYlImHOhDhIGOJPoJiNiIu4ZyiUBJ2zPryWiw+4WlpxAtSnpZk5Eic8uvAICqkO/nh2JeJmQjwwCVUndYk7ETdSXyCJQAaO/9SHix+CyA1IJlOB0IZxIA+sf8bgKFDGwwIZIB5eZyChgY0SAgSak67v+m0C3zb3Pp80+lHhPu/ViCxsiq0Ae+6LUq1rjyJ2bH01NiPigDVKptlebfkdiAYP5h9V3RQ2/GnPpla/c09zU+u3MnjZILvgATzW53rfszIPu9RWcKFP7d+8W85Bf8J7u6phyNFl048FdZUWI7Y118bS6wRY5BhXs3qCODgCllqqc65luJmfs1yHN4DVeO9RxubVXrb+L0QJdTUYuRKdsYPRCTS1hrqWqcrpoHZbOlCPblJOlvv4BNiq0umioyxdbzQ8i3zTjtEOdi0nmxUpP2E23S6sB9ZBzaim1U7NN05TMyOToupIgLBVZp5N6p9Rv0wCFfYzu6L5wxuoBEk8jJT6asMkmg/WEjeIFUSi2Ba9pU0ftIBMN2eR+Xf4ZiyYIpC5ycVekny5mLdacTSbpcnxPCBROGbBrdwhAE/etNevTgLQPVuo9trkQISEbCgWowXCuFurKp5/Zta78l9SE04VPmwrvLY8gI2hABw4rCPgvZt6pYIQPXH9NDzyr0sDwfftKiormz/csSZg8OSEhsfTYs8K5T4dY06b7HHTgoBjLV3lbYo0p0t2mCEmnm7qlO1yo0d2sGAmnHv+jHUwo8b0Q2QZ6A+8E06H7GOy4CvT0jPIfUnGBH41mwOANHt6mFOj+PYrEwFuyx1Fwfe+DdSZQQXln6es+Ha2AQQU1jzSXvO6bWiHPoIJBUySv+1pUEYBK7jWTuu4dxyLL4B2dAqWue/BAZBlU3r1/JfXJGZ9hyDKo5El/ietu1xZJBpV4hEq9AngWkgwq6bpK4rqHOiLJoBIvd4nrHo6JSFBFndsS132BL5IMqnSPkrjuLigiAFXUl3q7gh6WSDKopNFnEte9DDt4gCpsO0pc94e1kGRQSYTUi2bGsbURc7j4g7e3m9vo+LPfXbnZ82Dxk8TUsXgVROK8kklc91NsI28p58sWHQd0Szkashr7y0uUDKmXiKWwDFzhNjrNyy72zEdtmfRIkrruOfLHnaC8t5TNyzHFHuhjIKlp9+lS1/2I/IGfUK2Vml/g+OQW0EQqDPSTuO0G+fIHfl/lzoHmmdtXomu2NDgp9Yu71Uy+ur/mi/ToQXBFAnhLXffcifIHHqJfrcMYr8jrBFvEjqWd1HW3Y3lV9VB1J2BN3W/hCi9yPKVuO1nEUjLj2aDahzIfmW8IZcTMRcnr7s6yUDrZgsPBXP/dBM6Il/atJa97AMvEeTmn4gmDqxthjWiJlrztJIhl6B4cdwmMvISSM7HymfR1z2NbcOBaCRp3vi7EESUjpN/w2jSEZey+zlwP+UWOE9QRI39I/+JutZJl7PWWcD5ms5714Y748LeSvu7Nz7EMvlYA94PGpWFCUnzESN92EtaeZfA1C/hM5mN+RnR40bCl8GHW95Mu8Hlw2RoBf0TGvyiwnaSz1quH8LmVM++N23dxYWlDg+7/YR3/8JZ8jhs8HwaJit402E4esI7fkV9zzNHtoZCI8JXRYLsx+0XYaSevI9t/DYdExFkqLu422awBMJrG79BT0K1APBynYsdsst6XPQTR/H7fQl/BItEQSIXtZLGCCZSsprwObTAeL7CKhWV02E42KOib0YpnZ/sl2LBVJBgFU6J7jIIg1Ejhd+yWiRBJHORQYjtbk5kKHjfmdzezDS2XRIG/ASW2m5UoCoNHJL+j38bUuyjYSsvF3a+LojDU51kA7TMcKomAx7TYTgbbKgxENL+7Gf1ncEn4tLChRveXit8rjeDZIDMArzUJn3hqbCejFUei9hV+i21rv4RNQseTHtvZml2/jwW/laYGQ6GTwDFsRo/tJieUBMPSjd8JlmNzG4Fzg6KLu1V3ZdE4we8/v/MsCCVoPqHIdtLSUVk4Wj3ldYLcQzBKyNSyoEn3VcpnTh7zahto0htlYkJmHE22k53KZbTld/ceZQunhEs0VbaTAhVCsp9XtZxPFqQSLA6mdOm+S4WY1O9lxuMMskuwSrB8S5ftZkWqBCV7Ba+pSPQDFio36bKd+O1WKSyP+WzY8w32GhYoMyiznXRUrUC30VIeDZb8fodYgqRGf9p0z6ytWmQcP+ZROnMW3d4FyVbabCfxqobmowE8fkJmQC0B8it1tpOeKgenlHtHMdMxqAIWHiPos91E9dvqmscGcz5N03uwS2gYWdOne4NqLAHVuMTd9zXZ8Etg7KTPduI6tjoP8hnhXM9jcMMfggmKOxTaToZUa87E8HQPzkurBZ2gGGbcdczValYrftKHs+8L20IywVDHnErdU+SEYubeP9hb3a2ewjVQpnuwu4Fg6ECl7eSF3EeY0OPsgfL9yZ7z9Hu7NhBNEMyl03Y5Oxk4xBHS/x+KHljvreG6wGrq/gzCC4DZdNpObCYyQjHZ+PW/jxukKFptY1w5z/MPWbpPhVe1jdofX1la7AgxNYIjpbaTUF9GLD59uyxUoniGZl037tscyA5PO72bbYthy5m3Lpe1fPPKQdlKeKkhrtGqe4cWjFg8f3sRnqtkj0ivjIfGPM4ri92b8uvsouvnWlk61bPsNGx18omDMW4dqvKw4D6k1BhbabWdBDDaUdeNfPtBmNKiLofflhhr5o8KK8b28hpkPLW2k16MYJzzq3ionKt8C2DLoSMbq/0vmv4YfQs0ytf02k7SGNHwfHfJDktWIXS1PFMWqXOeaAP2+tA0TSi23Xg/IxwHK6dQ4lV7zckxY8octfwt4YVdIaPm8aNYd4u7jHD8vfKz1sdUjeCwjBuR/No3uG6eCRG1QibFthM7xqKP4e2qD9d0UT2KDee32zCY2+LTqphJ2L5JW4yh2XYSy9jUuu7/qj40C6pXrVA2TDx4pk91pnRNXc5OxT6U2uQ3qm0nKxgNYFqFvv/UnkNndsus2dturNmkpMumX+dTPydj/3htU0S37SSdcRux+8/NrTtwvqN26pJ870W7glPPD7zsMSG0qau965xwl8VLRiYtfRaShb34dEMbym2XU/770Qcz6RtQoi4h+tKu++fM3zvzP3+uvwPNeyXDENptN5nHXHP7sDCg/1e4w5YIe2m3nRgvYwTl5F/2Cs+900hUSXXK3jjv85jl3lej+rhnrtnZLSnm/NTJjpjp1NtBve3EilkHFv3X9aJrj0TREalmREjhx4tZNpGSxXq3y6d7yvNT2E5sVjPCMo+xPJr7k6WwRe8y9LvPVChV8wm4QG+vm3uQnZDWzGbXQw2YlQajhNoipk5CzoHc6tQq/HCyHpW2Z8H1NzUETRiBOS2nhl1/dKrgElhjxvhMDi9U6Qce8aLPdn+o/oYwZqejJ+byvvjPZUIqQj+et5N7X3LZuGW0FdQbmkL1NyxyYITGU/5axPpt/QSRuUbLzgTzHfX6dv3o0r01TH/LkEGM0AxnmdzQT0/W9WzesLxAmVqGbZ5E1WJxLESv4FvmGlIXH7YvB49voruf44Rpm9Q4boOAifTY/hCev6OMOU/R9f/snXtcTekax2u3T3t3U0lFZXRRpnQTug9HJEnp4kyFbhiKjhoVopvGpVxzKxEyMnSGcQslRujkEk0G5U4YlzMYBx+c43xmn3F8HF323muvtd612utZ7+//vd/3ed7vXvtZ7/u8zyO75qnGstrOOGLtnub6PWrD1S6a8oV2V4z5R2V2PEHqOkpeFFBRz+4Za9KiIGaqHeg+MeIH7Ycx5fJwFzbI/cTI2FPB7KyT4ZiCUAZNt3rBC9qLMeStcJdy6LKb4HGqvvLkeIbXSPv3XUfVmbb9Kh/aK5zEjLeSp5QjlwHEgXJo00umDidV57jEsZOWbZILn/YJGPHWspVyr6hRkX0r9SXN11C/tlqXTXLuxqLxruDzCcow4W00Wcp5i9EgBTc3bBtyvdFsxQ88u2itO+vGh0UDp30eBrytFkortv6zQPGAYH1I5AJtGqFL0ovi2LGizjG+Rx1s2qMx3+20UdrpYtRGUt8hWP12+alV5HKExQ4H1zQf6CvoXOtDQOfOOGG828vygbRjnVgK39Qz5n7esNzp0UNVZTPeP2le1u5X4UEbdZTD+oQugGkPwHR30JBkaZ56RuOFUaRn1TezMiH8XF5O88yZISHzG845xt7/z2QvE+XLygvqDpd2Awx3R3W7Js1V3rb83ZeCIhGGW8p+4iWppzzD1XlhvQ/coiLdMNvSdFyqswYv5IXxEWBrinyGyZaqJqldYbr48uLx7mwBlHYvDLZ0VUovqhHNi+j9GNCNyIWYaxlaLb2pr3CuMQ+Mnw+Tdh+MtSxNk3GQ7pDAA+NrQNLuiamWvRN5RobTvoH/jygYDJF2Zwy1bImKZSR5qT41gW77RoinTPhiqlzF6svwW/8qHeCmVwCk/RgmWq5iZN5MGv8W+MkcwNA9AQMtXyZ7ZfrOH/YfY+BocLQ7Yp6Jgvfhsjefvwbdg3MZONoTMc6EipNTQG7GSsCGp0GjvQDDTCz7eXI8OGcP2PjdEloh4CmYZQWkNlXeUfrSbQKgducAoz0Eo6yQVsbL86KDbz5IqwXjYNH+CoOsmIackX8tZt9qiFavhUV7C+ZYUW0jaDU221ELnM2iB6Bod4HMp2BxRdX26qIJtf96PumEczbdt8nQeQTODD7ZV3m5DY1Ld6ldscp7tIe1jcP4wYdyp57L1CP82AhQtF+ASrruqLmDNdvaqr/qzVp7WsQc1ifyZ3J6T+X70e/IK9osvYxvRlreYrmf1fCGRPsbmKwHnZJ122ypiy2Tj3cVFYvzv6op0Y/e78YMgqIZo6vXyfnXOweJ9jUAURclyG9+t9/Xkvp3pyuQG+hxr1wpHOHVtFexyux9XLJlfUcPSHeyT8GD3W0zodXaddRvsVjWK+JXp+OdvUcTNtGfBAfCx0tkfI8LINqzoLGuNVexwqMrqAc0rxsVGuG0S0SnecH9VSFpFKZL/0PKFsOh/TtgsHspXKdWfJ7yDXSFW7eY7l7WCWnwMctvUWJBXGcm7esGwKH9ECzYfWxI2G5RrEt1HKssRQcZmLXNkkUH6Pjdo3H+aZQjpVSfIxzavwYFewTJNKZ+btR3fRS/uCn+93Y/XVb+2NJ/o1v4KPnLju+pn4Oh3R8S7GGkezsLd1KONESDyDxEDUqbyxmtvJQfW41ka/zz8A5fnQWG9qWAYDf+lsrPnXqvOkGONamh9EuXr2OkiZJ9wr1odO+S+9o/AN6Cob0REO3/oOSB7nto/L58yRbEFd66ezEG4UNey60qEnWi4ox25RKNwRTKs4ED+68UXSAeTmNQvWIKNx4sop4VZNKu0THEuaqmUJUJKMa3a0VyCArt+mBg19lP2QlpdJIX9SbaUBs1vuRe02UzCqlqomnOBScPxTNIxdC2yTNg6uSJwVwze0fDC3PMaUUTBY3Uh7bwnv7M96vLG/QUiJvGOjtOfHOtHwuBRUAb3GPABO5QCrhrONF6fdlAa3C12Bm0F8IiPvrQ+bvDXh1OdD3w+rJf0NHMIL9lo46tTWyY6HIz7cjg0QZsYuHRZifSGgrt14HQ/pqeG4KD6G71X4LVn8u0dW50GRSr3IHQXk/TD5qudGfw2Y9JkHAvDPxk2iQoRu2AAbuWPl1HiH3pzyKzyAgO7tc+ZRE4Q7FpGQzaVyJwxV0EtzACT5QIoaAx9f9W9YRi0iYYtE9F4YsVSE467Q7PhtHIRfzp3A1KSch3MGjfi8QZ/oje2a/fPqIJgI1e9tBeUyfCoD0DjTcyNqCakN6mfaach+PvH0P3X4DQfgUE7OqogmXaO5Gt9deqsmBu0zEFwdGdMikXBO3TkPlD8wTSiYn6NqVx+Bmv/5cPZvgBof0ICNoXo9yKQJ5MYfd6+ct4buIx4IMF2UBoh3GdYwdKl9QzUuGup2filRInba7xsfZDpAjkKrYDpr2Donozl85jFfRVcfXD3530OcLH0A/NkANg0C5Ug0B7BOIlZqH6ka75WFu/ihHhiQXLlbopwLD/zRZK9VN7CLSHInZKl9vszX1UH6Xmw8Lq/SShlNkAkSiD/mi7qAc7MzcpUnZAat5P8yEQ2itABO5dkftlwRY25h3+Z+WPdd/3ua8FQjuMzkuP0DvGoIHxWW84ywVCJvwx05+B0H4PBO31TLjmiBmzQcwFbiTTCN0lkp1AaIdRCXI5I74xbGLu2q56A2dqRV+SSI4Dof0RCNrXM+SdFIYKU4vecqjphaYlmoxqJRCMGht6TKWUC6u/Z2C6lYWcYmSX5A4Q2lXMQeDuz5h/+ocgziQQHfDnGCK9erRAod0NBO27GPRQ/DmEtewEqRy8rJ0KpkPHRRC0uzHqo9F5iJ7v11tsuMhI8gUotD8HQbvoC2a95DHcjv4c/eq4eoEvBQrtZSBolzxj2k9dcj1pTTDb10kFq7M1HgbtK1lwVb9mqjl05nkpYoyaEkioC4J2DQ82nPWnlKpp5BMEmoHU3ICgGBgPd9ZSOW7tDFK8f43doDXjMGJKpHAYtJez6DKjsy1x+YR7jT4/1e7HeCmZYBTZkEjYPos3HeOS6mYnLZNmyKwRTyY8UsVoKaEGAKG9cyrRao5LeVk098aTkK0/hPi2PL30MMXJADOlvOoFhHZL/DDFIpYZENx/w0uJRag9QGiPw0uJRaipQGgX4R0QLEKVAqFdshWvJRaRDDWA0G7cHS8mFpG2QHm478RriUWkRCi099bEi4lFoDVQaJfcxYuJRSBvMLRvxCdMWETqDQb3GryYWAQaBIZ2L55G7pqNsx9Xt2wN3+M8a0tYtr2lpb2X+2TP9ZtuT7pQd9AJv8601l0wtEuqebZ0Rpsji109e8svaqZhti79aakNBl0JAnfjaWHuYfZ6iHLD9Hmzag4v71SEkandZ1nZUjIQ0945gbtOjOOw76IyPibIavaZHTmpknYxpxt8WC/tOYsOUFszDZ8pZV15Tnsq69dIy+8kS48mT++LpfWYN/4C+FoJo7Yv60bL+erOz735THs9u6x71ljLfeVacYLGcqZCXiiPmgQTJEuw4dUD3tLen8VmY8Z5C4gn1PXmYsqpkFFQV6nf9nKUJbYX/+LAU9xZqwYpqFK0G+GRoxSHsAVZzyLpzkL08WTlGCEfab/BEuyDyNSbGECxBdpNeNsvwyYztCBmxwP4Rzs7PbHzH5OcVpoVlWFMYL2odjkfx2ROtlY6727BiK1YgD2OPIX6zVSqSR+AFMFUDWF8gyy2kGe4b2Ue9jxK8XShD4WhzkDZV88KYifCPLaAV7QfZNyhVHv3aPuS/x83BxGMBkxl79RPNKiRR7QLP2PYnSepz+0s+dK6sQD2G99pSdiUYEowf3Bn+ALTFDpzs/EjPV4Rx5djzlWRhG3lV/NmP7KEUUf+jd4euPBHsgMGcro3wDfOnZOgF7GKJ7Sr2jHoRS/aiUhFApJDzuJuUndJ53V+EzUZ4l0ZuppOf3rzyOaHVHH1uc4U67r5Xl/29fHxiVkYaqkn883fbC8vaF/FHOwnUMzvW7JHAo+5uArJ6xD7Xi0s7qftuaULhlq0PWDpahpdGnklJ8HTsv0LQiovcuDHMgX7SGsk84snmSgS2I9zS5B0DKXf7Sp96x8RB3QGS18uOpfZqvuC2Vke0H6HKdpzEE3QOoLcuAs5FoN63EaXiro4Ly2DpHeT63YWfCikpfECPu0ZDO15CZAllnYvZ3UniF0Z3RiJaifRNZJyz7WlLZdXX+UB7Coq65mhHeH1CsMl5IaeyBnfiycgKqNv9cMM3MFPEb1ghvYShFM0JJkEXMMR129GsxFjUoD7sioqTXMmYO+pjXKOweSSxHQGcMHxvdKRpPT6pVlgiBXXfCZod0Q7xwByOzN6t5Q/iFmTj8DNgVW4WQM5nWbiPbUW8STjvUgN3ztDyZ3+4J8oriBdMcT4ktV9BmhH/nDdTy7gclfqGllGM9XpuzisRhuzS14MNKURoF+IzcakZhATrMQO/y971x5WY7bGd7vdTe3dVul+IZSK6CKJLlLpgkRJRY0uikiGNEoiTB0UxuUQRYrpijGUCXlo3O+DmBmN25O7cAYPc7DPmXlmzuEZ9t7fete39vd97ffvWL/1rt9e37ve62gMSUiXlJ2N0QT/mI5VNKBsEFKCUMXUr/woDF2rLJuVPU1R5TX+XF86YEZRe2AMYGYvuCfW8C9nmLKxI7roYy9hiqQFpx81EAMYeLv3DIQrd+94JWUhgn14aiM9OBupoahknO1+Ch7cMA9X8hUmxiMws72IHpxqeyg+H3wYpeaUH8GK1SrXU9IVKgnsYDtPn2Ks3T2UOToWPIbfKeO8lVyFi48JXrYn0wW0J8V8/N6MaWq7AN7mLviqQElVBVjEsuQibUDHU3xRWyxghH7PT4YrNTBFyVM84on3ci+lD2kWxYYr/HjFazdkOx+sUod6bN/Htcsf+CXM8aruV7kkuru1ZU2N5c/m0XEexZPPBewLD+rZAeg+Gyvb39CI9ATVvB5Fj6kxDoAb7PbtOIyYmCfXXvnKBGNRmZTvasxptruIcbLdkk6obVTReOkrULFWRRZgdZo8B3ti9E/efEgl61Jj2tQ8Ds81uIn1cqf1c3idKppMhVm8fRvhlXjqc6C0W9y2DsmUckjkamMlPaxVHTPohKpCubrw5xmKUKlmQzW8YENrDSx0qvnF/BJI9lmiEyfpvg8n2+mdlNGfch6b8DFxfdoeioDrUdVtOgjEloRcMIacoxxMLRYswcj2QHqxxlD/EJUSzZpx2XUZQx2ecOtxCAjDBx54TjPVj3sR3AaMbO9Kc11wli5lSNGb0E2nUEoV/X2bV2Ko1pCIw0D2+twmjPM9ag5xbtz4Xox0p3vMyVGERNnHqD/B8RJthz2zVy+QY6hOSsa50VgUGJEPSuuN9cI8H9R6F8d6eAwW4lNOPt1g1yOAGo7YX6jPX++EEZWH/b7p+/FjF3z767XdvTGp7/I2ELcm0FF9+ZZjSTr++FQzjHawXigGFmK6rGB16vvmdHThLP/sY+GuM72Dgt7Vb4u/XXSxOJqPTXf2V0DmOu8XOrj+u3touz6X2K4/GptmVGkfgtRtKQquJET7QHTLQUJEhDtPwFwgto70DfgYy6mR4xhndbymHexApAGY5stR1/tiDZ92ri/dAYzLGT4yofW3+JRLbcleYdNLMf1g16LFKSOtUBe0+XoQjUzSWHrVDKqSExhG4Ap93QJa51Xs/zW+uWjO7pzoD3NK9nDIGemJzWulSqCjSzjaN9syD3lFtbRAeu5O7b3t8LSUmOFgHL4BM0R/s+LMgn661NbkWBhnryqRlMVwh+7HsJ0fiehlLarLYzD6mp3/NQv3DPGx5d9gcGcL8g2gyXwJsvSiFnLPdXMId+h+ENcR2pFAm4QIjp8AopftvOQqTEb8mKnf4yknnL4UiCS3teP1T7X5By66byGAVoTcT9E8Hvje6rSp/bQdaJavwYGw+0MxKULzgi7stMRXRbwOKGdwsX0+CbQ+6FlPHukYrIfpZwJKl1C+5jVyh1/JcMIYnOyzEnhYpQN5HVPcMLHdkkj3tsVG6Ag/w9SHSBCz8NbsVwPMZQfr+SUjt0456t0LsxIqgB9kiwxeRxW9MZjofooI3HBAMEXYMhQnFBXPtWl52UVn3XZe9pg0bUxujx6p3Qe5x1WNrHYs8M+OSov1ocVbrbMd6og5z+u44o0pX6YfGbjOIM9fkw/bj8sWmtdbqs/ryJKP6XIn1MwlEgTSoMmG1YflCu3i2dTBpzZpvsTD9n+TgSsCXm4mBXPZe1ZXoZm9dbyOLi4RWNhuQqg3iQ003KPu9hs7D0p0WKIkO1jW4omP3yAEN9YA/sjYxsJqBR9wKd5zJdf/K1F4nJCGhODex5DlWtJmxbJDWlYC3fN3Sqb/IeVY6L6DFNw6HGh13Raw6YiOgPsyXVSOFf7Td1yIgz/mxOYDrcGUoOXMmg5ZeWBH8Qtlz+C/pP+XONizjxTcblWY3KZaE/N6seF8asE7LRQpWf4/ibHHcbkT0+hAc2wZuAaB95kecNHcDt5lVS8lx9+TLG0MzLlNDC4Gx8z/xSjwFJOLdFTAnkfJBislwz+QExj6XVmS69H1BG/5se7wfWYMPRgRfIKTObW9iZZVNCdc3LnSI7NyQOGL6+tvNYRy7oV7CwNpHpGD6yzBLUsWuZI3bhc/ldEYofNl8MZq5O8vqRLU7Fb2keZnwc/KMzw5RfdDGIxgW3JwD0vwi8ll53RyU9Z7VawYJJFMlLpglwPwQ0mXE49t60Gp4w02NNVzyLEzH04XL4Jf+BwJLRJceHMh/Wa8Snpd3Kb4QgAAEmJJREFUvz+9iiuk/JnxUvB+1OVrM2LmbCfHf2Z/Np0rbNe8COcKwebpIRESukR10unXsbSFD/Q/P/TwvboUg093TXexA29F43t5bo6oYXK/gxx2cKTvhloSWLmTyBkCvGViCZ3CH3f69knMzgw1p/jGyg8jRRvuffKvR42D78JPNqiURGpNwy2uDOUG3Q+T0C42SVOV0C726wqa0+ZisFf1vnrdmPP3UsPITzdEGPUWDn++TFxOW6nHabWTbThB90ioeg1INtxplRASofvLFW3zslJQWN/p240/lBfnflxblz797/pnwnE7ynIdHndD8zwbrDfkAt3BxkwhSbjbJWRFtbfdj9eLfji1cG2KjCY1Ap97JzMuhHnlpEqhU5mUziR6GIZtvJTRVNXmOvrXMfUMF56q4ITIdpI/zp0ShYnQPvrtsGqvqWeb/NdPca5tq3Wuu+EfdnZqYPUb3xJTeV59SVJ+Mfoj4QifSb9/Rc6w4a4PudA3bz1Qx0YkldD5rYStortLmvnzEL6AwyipqnMdC3bWtnOA7reBUfkckjGIoeYsJXt3aeMvVHbDF4iQ6jlxicSxieE+7Kd7FLDvYQBJsItHsJLsOdJ4ouYIX8C6rzStVVjj2UaPevbTvd4UpAItomVBaeosJLuj1NhVC3yBIVJbnujMWH4sOyFyZHdwLqCqH/vp7gSLU/YgmkG0mn1kvyF1QxhmYhnJOce92+KMxGLY3ebG/oZMPrAEjQNERyo/ZxnX+VFSt/MUvoIJpa+r5pbWUsDoCo+erKe7PuwVU04U7GFWkd3+ndTNPMDg7kmjrELB5/NzUZdzP89+ayYbFJe/RRKqTjGLyL5Kem3FXXg6hLACLdQyYyradCuJ9TL20/0kpOuguitJqHrscbsHSg/CuurCyf4EWY9ddrgjLWn5G/vpHgrhkOk9klBDxrKD66pPpe9jghF4CfW7oOj0XaRDN+XA8GxRI0DrqUQrPc1YEWWyPyJ9F9Phs4GEd6GqDC9DWNaCC8OEnwC8U9OIvtUH2zOf7M/60P6T5W+Dq1LQjvCjE6dzgO5zAa5I31Ekkd6pYTjXNa7IKHXxgZtjwZux6NIKoYxN/I4DdNd5hO4ksDMmiXSTKaPJ3nW/rCcivFTJNAuXMjdT7xw+YiYH6M5Ld0fWfqULSaBBFgwm+0RZk+z038CzVn7Bp0xjL+oflgVcoLthAbL+44iWdHkz9nbXvSCrikhnL3iRMrx+gdeUnaEGrlygO68BOc42NpQkzlhLZpLdV6Y7VjAZvMhI3M8k71SqELQ3coLuvZJRs+V6xJLEucyagVxXfyQzbUhzK3iVWfhbggyl3OGDH84JuvMmTEI8BaM0kjD7RjCO7HGbZMMugC6ilU+HNjtTnkGnfpQbdNdxRhzQpPqYJEzPOIZZ7NfkuHMXQVexWE7ToVOeDKHVyg2680I/QzyLrSTbifYfxiSyv3GSA3Ii+PMxni5tqlE3saZwhO68hWVop5FJsjK70xrGcL3rP+XpBR0AXcaRxuYuCD1XWrjSHFUlG82nbUry9aIZwAyuq7bIFW64CY2fXqJVmwLqjvdqzowCsUpGq9FuIVnQdVSbCUaMfLEe6E9zlRPdNxx1A3bSXK7QnXfeC6kFx7Qgkh4khadERpyQDymwCFVrNv1vIp09lGHVbOQM3XlBSA9Bdf9u5CDavFEo14fky0lCYG+/CCItxHVeUE+BC+vEHb7XIzVum0awvbvKIsVx3SRBznQ4tXOwi72RkIGsEkgdnIM3d+jOO4IyI0UjiWDezLYhiuE6/6y8DUZ0vEALfUkux1aAEOvVWsGlUX4L+yGckDib3BfOtp8iuD5H7swgw5egD0gdySiGZjKKJ865M1vInOElE+pXexDeq6PPEJtHqFbLJ8x17QL5B61ZgXr2VJPusIs0ha5rbRd2sN0ns1T2yQ0+jcCnzJ+IbeLOOJJcFydSMNTGRwNWWqIAn8cDpBaE4kXs8EaaBWtf6S/zrzyLEApCq/aT2oRKnS4prpdkU5m/NROQnGzfqpBo5Ua0BrNaBxvYMF34qkRi2Sy7x50oD2H0m288qXlkx1cS4fq6u5QYeAzdxhJPUVSo8h5qgukYvxDGs13wuxngLk/MP2sN9cPr7kfqyZ5Be6hJ3HKHmmbR3aPBsxXo6eiJPJmbP3nzf9i7E78a8z0O4J0Wp1QiJUm0kbQhSillSoosWVpcmYoktFCTEt1etsZONWiyU9mKoiy3JkuRwU3hNbIvuRfDMGPnuue+XnNn7rVUz3mec86z/Pq8/4A65/v79Ov3/J7fwvcOfuLvI7Vem6WpQ+1i+o90J+LY+R7tVhoqMusuj2hOPXRlfJKfwSRuO0m1lczPwN5YYMvvuE/+Y5Zcqo+ZlKtHuwI599m5e9PznKJum7Txj6X7Ydz/ynRJ5TQHziORNIb5hNU+fqe9zR8dtt5tqdaU6j/qRXtKUmXNXVZOWXJ11JB/1I1zF6jR/iQpDIfs0Td4cVJ6+0kMr4dYxvuzUd3//GbTK6Ubdhl5fUV/Ac2KOjZmqXpHaMt3sO6Yx+D9jkcDo18mbojhzbjXdTeDL7DktZoS7/1/PeoHaU8LmdCHwb221omHFN9zTV0otyM4LG6VMXopXMToAD+LF/y6rTGe7jyXXuIoIUy6a32U3INS7wczev0z/WlunSG3tyh6bq1DlhxeN2ksy3Zn1tGOSmDw67QPjhXxLhchb2iMZwZNdlYSBtePHj2106T/C21XdDSHfsuqfEh++06x19isjTSRJerjk1MZPyqesaA/gnHax9O1VW7HpTy2cnaWYFbLKCm9/eSvlNaiLtvw99FM5mYzA9MPKbA3EG05x+jkaPHi5GBL5r/2Av3TwKy8RvI5Gu6TKJt3SnZvJUHZ9OmirrM055aLvP3ojlVVrCP2uSv05bhq0uAgWnM0Jn7eZTINPXtMpjm20768z5L/4ZhbHNjkC9aNjlnC27HX77Ovs4v+4ZaeZV4ndraVZkg87vDCdZvZmWlzGFvoJMX+VZWAl9fzZD1hUev1NXqz+DMe6gsmIF0XPKm53P+jEa/muF7nnsV0VxIk988niA8vYvRzPOac2vtticvoL2OvM/0rv9zHb2OqtVj+aloT5/u/Cmh8Alxstszx+tmbclhFLrpE55VMp/qTsUKMSQfLbb4ZcZsfGOkqCdq+L7pgR3uZWt9h7nL3mX1jNsT0nRV3c0J3rt+aqFlmjL2R/1PNCZ+XFaE+gasTp70+M7NaXrtoTX+RPuvTQ++tVVMCTn15HpF2jS3KItUg7raUTy3GQ/xTLVEvHmhn3cj0+BFnFIbqn8aGKCmmpTVGV3g/nKCOcvGFfWMvIQ0j3VCZZvj6Uy01bvthoHfwu/YoFc/EqDS+DdMIpWlcaeTopjtzC6uDR9J/83VAmXjqShOzwrlczx+Ius11dbV3M+VZvT6/a2Po9KXlFTMSvdZd9bVVRZz4bkZTbxj3c3S5lGlIVtpu6/8dGmMQ4BeZtZY3QdI9sG2te1Jp3y1VszKWG3UUIUCCotX06SwfTrN9DFrXM0eDGn3+MwirrUZbgcwcmlkF1PMxiwP4RdN2NfvW3zofM3kgK/vmFg+qNOSx8t96+Qsp3tVovFqFCT2QTUjzG08tEhW9F2tUndQ7o3LWYagMMllF9a4k00txIxr1H+1oXUIwJhj9O8iiknKXtdipViGBt79Df7N7UClaDGRQK9UmhIIH8v2tnnVOzHYa+eBtL8jgsXQxG/DtVXld9GZfWy5mlnXJ8BUpWFEIMpD6IG+dIX3iZH1SbNM3cSmzoItzLt79B6IOMj4svqfTufod/5FpH6+VsTdsKKOkG65fWdYRLQVyQPe+2FaZt4p9aS5jMXo6eASzsxuVhxxP0kIjgdzibsfg6IzFod7nN0ux17J7/KPIy0zPwLBJzmuH9gG5UrVjmEaJyezQtGent7wb2eOTuXD1HiMnLjh9/0h9prGEMYsf4jDBDgro3RMkshIbmA0IsLa2Xtp/gJmBHA4kXf8c705BQY+qtyS8YjULbQKKi3skj7KuMQ37I0ChvHkTduU8tAYoWIqYJ2n/Bm0BCje/FS/CHoGWABas0uNB2LWnoiGADRlduE97CZoB2FE9hvO0v0UrAEuGuXCd9hA0ArDFNIrjtOO0MmCP+gtu046zV4FNwTpcpn0CGgDYFGfGYdoPof7AKtvZ3KU9G+UHlp9VIzhLew6qD2yr0+Yq7s9RfGBbkgVHaR+ti+ID25xHcBT3CqxuB9aJfuJoDbBPaxQfWFe0h5u4L/sLag+sM3LiJu4G6ejegf3RzGANbvI+7hjyDqyrsuHoYdXiuieqDyzrtp+rmXeV3Q/boP7Arhvc7eDrNKMMIxpglasVh8vE2vqc7o4mAPZoPVbhchWweErhWA+0ArAlJJrrLXyjv7tS1RUNAWxoX8iH05XMhtTU5i3C1QWgaDP78+bwPIOcIQOPFPztfMycB3OHdcDB16CA7t1fRcJLysO72GwM+Hpnr8MDkyd5PcoLMcJ1HiD76N1aIgwaFi7fPa789yg0GcgwOZOvKRESsxULw3tjpAMMTVgjERrjFdkLOqDlgIngaxLh0S6/PQfXrQJ9/barSIRoSWBqD7Qe0DVxnkSYNCvOY0wDdJ3qLNC8SwwSSvHYCvR08DYUat4l4726oQGBFssIsWDzrpl7Ew0I9IbvayTC9X0VGhBoibEScN6dNqABgQ71MzkCzns57twGWlQrxws477tj0YLQYvLe6ghWywO9vIdbCzfvPeejAYHe+H2Hk3DzvsYeDQj0xB/UEGrc9Z7g9SrQZH90qFDzvn4kmg9o6ncyWqBx75SK1gPa+oZqCzPvyaZoPKDNI12Yb5yC8LAKTCTVDBJg3NtiNAOMtH5aoim8vL/HXg9gRje8Qoe74CqbbXW53FASuullfVh55jhj6ZYnb92GdgOmgU+1Y3VIY9D/X1FHC4qfz7HX//yjiJxvlhWvtHMyofgJT9FqwJioNHGKote6mDtFpV35Zla1VJusO4ZUJvo1fRus+AnaDGThVmmniH2sg4Iqtqf/luHJ5OgMj5g+L80b/7HpaDCQ0YVLCfI6NlXPuj7yXt4ifdn/Cp/6/6r8Ze9+Bq0Fsut6NfuVLDfKG88e6F2Z5CbXz2Q6M/9ng89mIi3RVCAfHoeeXXQxphdzncUlky4lDVPYs0XG3rCPL5d6g1YCeXKOn38notd4imVkev3XBw7OKrVk4VA7rfg75X+ueRAfQAOBAuj3js+rTMleuDoidH+D3/eXwxoObrJb7X895dKOOdVsbyvqsarwv9tSvNEw0CL+6QQnTJcsQx2gpYgtxn1m0HJgAQEAAAAAAAAAABMdL52oX+MyJWBj52smPa9ZmI/ZarV+t93R23Wp8RfaoDxAGOfiw8pNrGG3mXci/5+9VVEjIEi/+X7N3P9nuKvmGO4OBoJ0T/m62YVne+pPLkeVgBghFyluROtcswpHJwEpHLzMKVbQDw8s0kKdgAyicMq94F3SMKQBUhTtpNwjNS9VhDoBGXZQn/VhfqUd6gREUA8fQJn3JQW6KBQQwbSPAWXeTe61RqGACJ6O1GccjBuLOgEZqqQ4xsmvGnUCMoYzk1tRxl3zPpbRABl8t1J377OxORUI6d4LqQ90N/wFdQIybDCh7t5L9FEnIILbCOq4R8eiTkAE0ULquA/PQ52ADKcMKeOuUYcyARl8bai79x+wvQnIMDWTOu4z1FAnIIJuGHXcfbAOGMigFUgd9zd4rwpkUE+jjnsCxu5AiALquG9HlYAQ96jjjltUgRR3KVfNiM+iSkCILMq4a/qiSkCIY5RxN/dAlYAQxZRxH4FpdyDFDcon1cEoEpDiCeUKsQUoEpAinyruZsNQJCDFC6q4b0KNgBjbqeJ+HjUCUqjnUp2b54EiASlUoyjibocaATG0KijiXoUaATlxf0lxDAGORAVyiAKxGhJazqNqYbNpN+6GEgFB7mk0F/e/o0BAklVtm0l7K1cUCEgSG93c4e6oDxBFNwpvVKHluNH0sXl7bFEeIMu2oCbjXo6Ls4EwouvaTcV9NaoDpFn+a1Nx74PiAGnUjzV1hQdOugby9EvUaTzuV1AbIM/IBJVG456IwyGBQAf+s3Cs6f2r4GjQjIJhCKLPeWFJ7tqbR0NmFAxHIFGNZTGB77HRgBkFwxMU/3bE3LlnOhouo2B4Aq7+30rox0NuHw2WUTBcAUdr9ZbbqLeQBYyGyigYxiDjVvuEJ5pBWo4K1hFPFi8ZmYEAAOIK/kUEclRVAAAAAElFTkSuQmCC;" vertex="1" parent="1">
          <mxGeometry x="543.4300000000001" y="220" width="73.15" height="50" as="geometry" />
        </mxCell>
        <mxCell id="RrAkKvRdYdzd3wH-LYKH-5" value="" style="shape=image;verticalLabelPosition=bottom;labelBackgroundColor=default;verticalAlign=top;aspect=fixed;imageAspect=0;image=data:image/png,iVBORw0KGgoAAAANSUhEUgAAAu0AAAIACAMAAAABuqIJAAAABGdBTUEAALGPC/xhBQAAAAFzUkdCAK7OHOkAAAMAUExURUdwTP8/APpMAPpMAP9VAP9/APpPAPpPAP8AAPpMAP9VAPpPAP9mAPpMAP9IAPpPAPpPAP9FAP9OAP9VAPpPAP9IAP9MAPpMAP9PAPpMAPpMAP9MAPpNAPpMAPpPAP9QAPpOAP8/APpPAPpMAPpMAP9MAP9NAP9PAP9VAPxNAPpMAPxOAPpPAP9LAP1PAP9QAPxOAP9MAPxNAP9VAPtPAP9VAP1NAPxOAPtPAP9KAPxPAPpOAP9OAP9RAP1PAP9MAP9RAPpPAPxNAP9OAPxPAP1PAP1OAP1PAP1NAP9OAPpPAP9VAP1PAPpPAPxPAP9SAP9LAP1OAPtOAPtMAPtPAPtPAPtNAP1OAPxPAPxQAPtPAP9NAP9NAP9QAP9OAPxMAP1OAP1OAPxOAP1OAP1PAP1PAPxPAP1PAP9RAP1PAPxPAPpPAP1PAPtPAPtPAP9QAP9NAP9PAP9OAP9QAP1PAPxQAP1PAPxPAP9NAP1OAP9QAPxOAP9PAPxPAPxQAPpPAP1PAP9QAPxOAPtOAP1OAP9NAPtNAPxPAP1OAPpMAPxPAPxPAP9NAP1PAP1PAPtOAP1PAP1PAP9OAPxOAPxPAP1OAP9PAPxPAPxNAP1PAP1PAPtPAPtNAPtMAP1PAP9QAPtNAPtPAP9OAP1OAPtPAP1OAPtOAPxPAPxPAPxNAP1OAPpNAPxOAPxOAP1OAPxNAP1NAPtQAPxOAP9QAP1OAP1PAPtPAPtQAP1NAP1PAP1PAPxPAPtQAPxOAP1PAP1PAPxOAPxOAP1OAPxOAPxNAPtNAPxPAPxPAP9LAPtOAPtOAPxPAP1OAPxOAP1PAP1NAP9SAPxOAPxPAP1PAPxOAP1OAP1OAP1OAPxPAP1PAPtPAPpPAPxOAPxQAP9RAP1PAP1PAPxOAPxPAPxOAP1PAPxPAP9PAPtNAP9RAPtPAPxPAP1NAP1PAPxPAPxOAPtOAPxOAPxMAPxOAPtNAP1OAP1PAP1OAPxOAP1OAPxQAP9MAP1NAPxNAPxPAP9PAP1PAMhyqegAAAD/dFJOUwAE+fwDAvv+Af0G9wX6B/jxCw0J9Q4K8xD27x7j8OsT6gjn4uYUFx0MzOnT5RukI8AoeRJDD6XG2hjH4CcZpzUW7s8adoaCvqg09BW38sEfEYvd3FDe2aPOXNshJDYx0qy5W4iHodGQHKp95J3YRyk4PT48oFmKyzuZOXEgxFbhjj9eRIwu1nSV7NTIK7uDS5e9N9BkpjBgv4G610jfqzNF1SqSTZ9OesrJs+14fI9sskxlJq+uQEa1kZNqScONsGJ7om5fQlpdJVRBV5xYlJgicm2eYbyWiXOxSuh+aS+agH9nb7R3LVIsU2O4hHBoUXXFVU+FrbZrqWYym8LNOuENoeIAACAASURBVHja7J17XE3pGsfTVbaUe0VCpVJSVC65lFwacinVkEhJLmUo14xBlDGMe6lxi4zTjJDc56DROIncL4eR+eAYl8GZGXEcNI73IGXM2mvv3Vr7stZ6f98/7f1Zq/d5vtZe632f9bx6errBNntG/tC87QXxT1dMj10QPse+mU0DMxPjBtbN40InRDqXRQUs7/Uo7X7J6oGN9AAQI0aOM0/8HJQ+IFhGVMcv8kDS+Iz5HnURPyAOOiWmTft+gT7hQ27nKdtCPGogmEC4nh/K8Xa2IGrDbMLVKxnltRBYIChqRjzuFXiNaAR956Rd5bURYyAE+oUEvbQgGsZ8+tld12si2ECH7D5yMYxojdw9R+/CeKCLm5fyH/e0Jlqn2cg8DwQfaBP/jPTmRGdMGLUSl3igFVrsL3Ahuibu8kY8uAIN43ghSkaEgfXFROQDaIzsQmciKAZvd0RWgAYeSieNCiPCw3TN1BZIDlCr6omXXYlQsU5pggwBdfHLqDlE0Bg8n4QsATUw9lEsEQGdZxsiV4AXXg8yTYlImHOhDhIGOJPoJiNiIu4ZyiUBJ2zPryWiw+4WlpxAtSnpZk5Eic8uvAICqkO/nh2JeJmQjwwCVUndYk7ETdSXyCJQAaO/9SHix+CyA1IJlOB0IZxIA+sf8bgKFDGwwIZIB5eZyChgY0SAgSak67v+m0C3zb3Pp80+lHhPu/ViCxsiq0Ae+6LUq1rjyJ2bH01NiPigDVKptlebfkdiAYP5h9V3RQ2/GnPpla/c09zU+u3MnjZILvgATzW53rfszIPu9RWcKFP7d+8W85Bf8J7u6phyNFl048FdZUWI7Y118bS6wRY5BhXs3qCODgCllqqc65luJmfs1yHN4DVeO9RxubVXrb+L0QJdTUYuRKdsYPRCTS1hrqWqcrpoHZbOlCPblJOlvv4BNiq0umioyxdbzQ8i3zTjtEOdi0nmxUpP2E23S6sB9ZBzaim1U7NN05TMyOToupIgLBVZp5N6p9Rv0wCFfYzu6L5wxuoBEk8jJT6asMkmg/WEjeIFUSi2Ba9pU0ftIBMN2eR+Xf4ZiyYIpC5ycVekny5mLdacTSbpcnxPCBROGbBrdwhAE/etNevTgLQPVuo9trkQISEbCgWowXCuFurKp5/Zta78l9SE04VPmwrvLY8gI2hABw4rCPgvZt6pYIQPXH9NDzyr0sDwfftKiormz/csSZg8OSEhsfTYs8K5T4dY06b7HHTgoBjLV3lbYo0p0t2mCEmnm7qlO1yo0d2sGAmnHv+jHUwo8b0Q2QZ6A+8E06H7GOy4CvT0jPIfUnGBH41mwOANHt6mFOj+PYrEwFuyx1Fwfe+DdSZQQXln6es+Ha2AQQU1jzSXvO6bWiHPoIJBUySv+1pUEYBK7jWTuu4dxyLL4B2dAqWue/BAZBlU3r1/JfXJGZ9hyDKo5El/ietu1xZJBpV4hEq9AngWkgwq6bpK4rqHOiLJoBIvd4nrHo6JSFBFndsS132BL5IMqnSPkrjuLigiAFXUl3q7gh6WSDKopNFnEte9DDt4gCpsO0pc94e1kGRQSYTUi2bGsbURc7j4g7e3m9vo+LPfXbnZ82Dxk8TUsXgVROK8kklc91NsI28p58sWHQd0Szkashr7y0uUDKmXiKWwDFzhNjrNyy72zEdtmfRIkrruOfLHnaC8t5TNyzHFHuhjIKlp9+lS1/2I/IGfUK2Vml/g+OQW0EQqDPSTuO0G+fIHfl/lzoHmmdtXomu2NDgp9Yu71Uy+ur/mi/ToQXBFAnhLXffcifIHHqJfrcMYr8jrBFvEjqWd1HW3Y3lV9VB1J2BN3W/hCi9yPKVuO1nEUjLj2aDahzIfmW8IZcTMRcnr7s6yUDrZgsPBXP/dBM6Il/atJa97AMvEeTmn4gmDqxthjWiJlrztJIhl6B4cdwmMvISSM7HymfR1z2NbcOBaCRp3vi7EESUjpN/w2jSEZey+zlwP+UWOE9QRI39I/+JutZJl7PWWcD5ms5714Y748LeSvu7Nz7EMvlYA94PGpWFCUnzESN92EtaeZfA1C/hM5mN+RnR40bCl8GHW95Mu8Hlw2RoBf0TGvyiwnaSz1quH8LmVM++N23dxYWlDg+7/YR3/8JZ8jhs8HwaJit402E4esI7fkV9zzNHtoZCI8JXRYLsx+0XYaSevI9t/DYdExFkqLu422awBMJrG79BT0K1APBynYsdsst6XPQTR/H7fQl/BItEQSIXtZLGCCZSsprwObTAeL7CKhWV02E42KOib0YpnZ/sl2LBVJBgFU6J7jIIg1Ejhd+yWiRBJHORQYjtbk5kKHjfmdzezDS2XRIG/ASW2m5UoCoNHJL+j38bUuyjYSsvF3a+LojDU51kA7TMcKomAx7TYTgbbKgxENL+7Gf1ncEn4tLChRveXit8rjeDZIDMArzUJn3hqbCejFUei9hV+i21rv4RNQseTHtvZml2/jwW/laYGQ6GTwDFsRo/tJieUBMPSjd8JlmNzG4Fzg6KLu1V3ZdE4we8/v/MsCCVoPqHIdtLSUVk4Wj3ldYLcQzBKyNSyoEn3VcpnTh7zahto0htlYkJmHE22k53KZbTld/ceZQunhEs0VbaTAhVCsp9XtZxPFqQSLA6mdOm+S4WY1O9lxuMMskuwSrB8S5ftZkWqBCV7Ba+pSPQDFio36bKd+O1WKSyP+WzY8w32GhYoMyiznXRUrUC30VIeDZb8fodYgqRGf9p0z6ytWmQcP+ZROnMW3d4FyVbabCfxqobmowE8fkJmQC0B8it1tpOeKgenlHtHMdMxqAIWHiPos91E9dvqmscGcz5N03uwS2gYWdOne4NqLAHVuMTd9zXZ8Etg7KTPduI6tjoP8hnhXM9jcMMfggmKOxTaToZUa87E8HQPzkurBZ2gGGbcdczValYrftKHs+8L20IywVDHnErdU+SEYubeP9hb3a2ewjVQpnuwu4Fg6ECl7eSF3EeY0OPsgfL9yZ7z9Hu7NhBNEMyl03Y5Oxk4xBHS/x+KHljvreG6wGrq/gzCC4DZdNpObCYyQjHZ+PW/jxukKFptY1w5z/MPWbpPhVe1jdofX1la7AgxNYIjpbaTUF9GLD59uyxUoniGZl037tscyA5PO72bbYthy5m3Lpe1fPPKQdlKeKkhrtGqe4cWjFg8f3sRnqtkj0ivjIfGPM4ri92b8uvsouvnWlk61bPsNGx18omDMW4dqvKw4D6k1BhbabWdBDDaUdeNfPtBmNKiLofflhhr5o8KK8b28hpkPLW2k16MYJzzq3ionKt8C2DLoSMbq/0vmv4YfQs0ytf02k7SGNHwfHfJDktWIXS1PFMWqXOeaAP2+tA0TSi23Xg/IxwHK6dQ4lV7zckxY8octfwt4YVdIaPm8aNYd4u7jHD8vfKz1sdUjeCwjBuR/No3uG6eCRG1QibFthM7xqKP4e2qD9d0UT2KDee32zCY2+LTqphJ2L5JW4yh2XYSy9jUuu7/qj40C6pXrVA2TDx4pk91pnRNXc5OxT6U2uQ3qm0nKxgNYFqFvv/UnkNndsus2dturNmkpMumX+dTPydj/3htU0S37SSdcRux+8/NrTtwvqN26pJ870W7glPPD7zsMSG0qau965xwl8VLRiYtfRaShb34dEMbym2XU/770Qcz6RtQoi4h+tKu++fM3zvzP3+uvwPNeyXDENptN5nHXHP7sDCg/1e4w5YIe2m3nRgvYwTl5F/2Cs+900hUSXXK3jjv85jl3lej+rhnrtnZLSnm/NTJjpjp1NtBve3EilkHFv3X9aJrj0TREalmREjhx4tZNpGSxXq3y6d7yvNT2E5sVjPCMo+xPJr7k6WwRe8y9LvPVChV8wm4QG+vm3uQnZDWzGbXQw2YlQajhNoipk5CzoHc6tQq/HCyHpW2Z8H1NzUETRiBOS2nhl1/dKrgElhjxvhMDi9U6Qce8aLPdn+o/oYwZqejJ+byvvjPZUIqQj+et5N7X3LZuGW0FdQbmkL1NyxyYITGU/5axPpt/QSRuUbLzgTzHfX6dv3o0r01TH/LkEGM0AxnmdzQT0/W9WzesLxAmVqGbZ5E1WJxLESv4FvmGlIXH7YvB49voruf44Rpm9Q4boOAifTY/hCev6OMOU/R9f/snXtcTekax2u3T3t3U0lFZXRRpnQTug9HJEnp4kyFbhiKjhoVopvGpVxzKxEyMnSGcQslRujkEk0G5U4YlzMYBx+c43xmn3F8HF323muvtd612utZ7+//vd/3ed7vXvtZ7/u8zyO75qnGstrOOGLtnub6PWrD1S6a8oV2V4z5R2V2PEHqOkpeFFBRz+4Za9KiIGaqHeg+MeIH7Ycx5fJwFzbI/cTI2FPB7KyT4ZiCUAZNt3rBC9qLMeStcJdy6LKb4HGqvvLkeIbXSPv3XUfVmbb9Kh/aK5zEjLeSp5QjlwHEgXJo00umDidV57jEsZOWbZILn/YJGPHWspVyr6hRkX0r9SXN11C/tlqXTXLuxqLxruDzCcow4W00Wcp5i9EgBTc3bBtyvdFsxQ88u2itO+vGh0UDp30eBrytFkortv6zQPGAYH1I5AJtGqFL0ovi2LGizjG+Rx1s2qMx3+20UdrpYtRGUt8hWP12+alV5HKExQ4H1zQf6CvoXOtDQOfOOGG828vygbRjnVgK39Qz5n7esNzp0UNVZTPeP2le1u5X4UEbdZTD+oQugGkPwHR30JBkaZ56RuOFUaRn1TezMiH8XF5O88yZISHzG845xt7/z2QvE+XLygvqDpd2Awx3R3W7Js1V3rb83ZeCIhGGW8p+4iWppzzD1XlhvQ/coiLdMNvSdFyqswYv5IXxEWBrinyGyZaqJqldYbr48uLx7mwBlHYvDLZ0VUovqhHNi+j9GNCNyIWYaxlaLb2pr3CuMQ+Mnw+Tdh+MtSxNk3GQ7pDAA+NrQNLuiamWvRN5RobTvoH/jygYDJF2Zwy1bImKZSR5qT41gW77RoinTPhiqlzF6svwW/8qHeCmVwCk/RgmWq5iZN5MGv8W+MkcwNA9AQMtXyZ7ZfrOH/YfY+BocLQ7Yp6Jgvfhsjefvwbdg3MZONoTMc6EipNTQG7GSsCGp0GjvQDDTCz7eXI8OGcP2PjdEloh4CmYZQWkNlXeUfrSbQKgducAoz0Eo6yQVsbL86KDbz5IqwXjYNH+CoOsmIackX8tZt9qiFavhUV7C+ZYUW0jaDU221ELnM2iB6Bod4HMp2BxRdX26qIJtf96PumEczbdt8nQeQTODD7ZV3m5DY1Ld6ldscp7tIe1jcP4wYdyp57L1CP82AhQtF+ASrruqLmDNdvaqr/qzVp7WsQc1ifyZ3J6T+X70e/IK9osvYxvRlreYrmf1fCGRPsbmKwHnZJ122ypiy2Tj3cVFYvzv6op0Y/e78YMgqIZo6vXyfnXOweJ9jUAURclyG9+t9/Xkvp3pyuQG+hxr1wpHOHVtFexyux9XLJlfUcPSHeyT8GD3W0zodXaddRvsVjWK+JXp+OdvUcTNtGfBAfCx0tkfI8LINqzoLGuNVexwqMrqAc0rxsVGuG0S0SnecH9VSFpFKZL/0PKFsOh/TtgsHspXKdWfJ7yDXSFW7eY7l7WCWnwMctvUWJBXGcm7esGwKH9ECzYfWxI2G5RrEt1HKssRQcZmLXNkkUH6Pjdo3H+aZQjpVSfIxzavwYFewTJNKZ+btR3fRS/uCn+93Y/XVb+2NJ/o1v4KPnLju+pn4Oh3R8S7GGkezsLd1KONESDyDxEDUqbyxmtvJQfW41ka/zz8A5fnQWG9qWAYDf+lsrPnXqvOkGONamh9EuXr2OkiZJ9wr1odO+S+9o/AN6Cob0REO3/oOSB7nto/L58yRbEFd66ezEG4UNey60qEnWi4ox25RKNwRTKs4ED+68UXSAeTmNQvWIKNx4sop4VZNKu0THEuaqmUJUJKMa3a0VyCArt+mBg19lP2QlpdJIX9SbaUBs1vuRe02UzCqlqomnOBScPxTNIxdC2yTNg6uSJwVwze0fDC3PMaUUTBY3Uh7bwnv7M96vLG/QUiJvGOjtOfHOtHwuBRUAb3GPABO5QCrhrONF6fdlAa3C12Bm0F8IiPvrQ+bvDXh1OdD3w+rJf0NHMIL9lo46tTWyY6HIz7cjg0QZsYuHRZifSGgrt14HQ/pqeG4KD6G71X4LVn8u0dW50GRSr3IHQXk/TD5qudGfw2Y9JkHAvDPxk2iQoRu2AAbuWPl1HiH3pzyKzyAgO7tc+ZRE4Q7FpGQzaVyJwxV0EtzACT5QIoaAx9f9W9YRi0iYYtE9F4YsVSE467Q7PhtHIRfzp3A1KSch3MGjfi8QZ/oje2a/fPqIJgI1e9tBeUyfCoD0DjTcyNqCakN6mfaach+PvH0P3X4DQfgUE7OqogmXaO5Gt9deqsmBu0zEFwdGdMikXBO3TkPlD8wTSiYn6NqVx+Bmv/5cPZvgBof0ICNoXo9yKQJ5MYfd6+ct4buIx4IMF2UBoh3GdYwdKl9QzUuGup2filRInba7xsfZDpAjkKrYDpr2Donozl85jFfRVcfXD3530OcLH0A/NkANg0C5Ug0B7BOIlZqH6ka75WFu/ihHhiQXLlbopwLD/zRZK9VN7CLSHInZKl9vszX1UH6Xmw8Lq/SShlNkAkSiD/mi7qAc7MzcpUnZAat5P8yEQ2itABO5dkftlwRY25h3+Z+WPdd/3ua8FQjuMzkuP0DvGoIHxWW84ywVCJvwx05+B0H4PBO31TLjmiBmzQcwFbiTTCN0lkp1AaIdRCXI5I74xbGLu2q56A2dqRV+SSI4Dof0RCNrXM+SdFIYKU4vecqjphaYlmoxqJRCMGht6TKWUC6u/Z2C6lYWcYmSX5A4Q2lXMQeDuz5h/+ocgziQQHfDnGCK9erRAod0NBO27GPRQ/DmEtewEqRy8rJ0KpkPHRRC0uzHqo9F5iJ7v11tsuMhI8gUotD8HQbvoC2a95DHcjv4c/eq4eoEvBQrtZSBolzxj2k9dcj1pTTDb10kFq7M1HgbtK1lwVb9mqjl05nkpYoyaEkioC4J2DQ82nPWnlKpp5BMEmoHU3ICgGBgPd9ZSOW7tDFK8f43doDXjMGJKpHAYtJez6DKjsy1x+YR7jT4/1e7HeCmZYBTZkEjYPos3HeOS6mYnLZNmyKwRTyY8UsVoKaEGAKG9cyrRao5LeVk098aTkK0/hPi2PL30MMXJADOlvOoFhHZL/DDFIpYZENx/w0uJRag9QGiPw0uJRaipQGgX4R0QLEKVAqFdshWvJRaRDDWA0G7cHS8mFpG2QHm478RriUWkRCi099bEi4lFoDVQaJfcxYuJRSBvMLRvxCdMWETqDQb3GryYWAQaBIZ2L55G7pqNsx9Xt2wN3+M8a0tYtr2lpb2X+2TP9ZtuT7pQd9AJv8601l0wtEuqebZ0Rpsji109e8svaqZhti79aakNBl0JAnfjaWHuYfZ6iHLD9Hmzag4v71SEkandZ1nZUjIQ0945gbtOjOOw76IyPibIavaZHTmpknYxpxt8WC/tOYsOUFszDZ8pZV15Tnsq69dIy+8kS48mT++LpfWYN/4C+FoJo7Yv60bL+erOz735THs9u6x71ljLfeVacYLGcqZCXiiPmgQTJEuw4dUD3tLen8VmY8Z5C4gn1PXmYsqpkFFQV6nf9nKUJbYX/+LAU9xZqwYpqFK0G+GRoxSHsAVZzyLpzkL08WTlGCEfab/BEuyDyNSbGECxBdpNeNsvwyYztCBmxwP4Rzs7PbHzH5OcVpoVlWFMYL2odjkfx2ROtlY6727BiK1YgD2OPIX6zVSqSR+AFMFUDWF8gyy2kGe4b2Ue9jxK8XShD4WhzkDZV88KYifCPLaAV7QfZNyhVHv3aPuS/x83BxGMBkxl79RPNKiRR7QLP2PYnSepz+0s+dK6sQD2G99pSdiUYEowf3Bn+ALTFDpzs/EjPV4Rx5djzlWRhG3lV/NmP7KEUUf+jd4euPBHsgMGcro3wDfOnZOgF7GKJ7Sr2jHoRS/aiUhFApJDzuJuUndJ53V+EzUZ4l0ZuppOf3rzyOaHVHH1uc4U67r5Xl/29fHxiVkYaqkn883fbC8vaF/FHOwnUMzvW7JHAo+5uArJ6xD7Xi0s7qftuaULhlq0PWDpahpdGnklJ8HTsv0LQiovcuDHMgX7SGsk84snmSgS2I9zS5B0DKXf7Sp96x8RB3QGS18uOpfZqvuC2Vke0H6HKdpzEE3QOoLcuAs5FoN63EaXiro4Ly2DpHeT63YWfCikpfECPu0ZDO15CZAllnYvZ3UniF0Z3RiJaifRNZJyz7WlLZdXX+UB7Coq65mhHeH1CsMl5IaeyBnfiycgKqNv9cMM3MFPEb1ghvYShFM0JJkEXMMR129GsxFjUoD7sioqTXMmYO+pjXKOweSSxHQGcMHxvdKRpPT6pVlgiBXXfCZod0Q7xwByOzN6t5Q/iFmTj8DNgVW4WQM5nWbiPbUW8STjvUgN3ztDyZ3+4J8oriBdMcT4ktV9BmhH/nDdTy7gclfqGllGM9XpuzisRhuzS14MNKURoF+IzcakZhATrMQO/y971x5WY7bGd7vdTe3dVul+IZSK6CKJLlLpgkRJRY0uikiGNEoiTB0UxuUQRYrpijGUCXlo3O+DmBmN25O7cAYPc7DPmXlmzuEZ9t7fete39vd97ffvWL/1rt9e37ve62gMSUiXlJ2N0QT/mI5VNKBsEFKCUMXUr/woDF2rLJuVPU1R5TX+XF86YEZRe2AMYGYvuCfW8C9nmLKxI7roYy9hiqQFpx81EAMYeLv3DIQrd+94JWUhgn14aiM9OBupoahknO1+Ch7cMA9X8hUmxiMws72IHpxqeyg+H3wYpeaUH8GK1SrXU9IVKgnsYDtPn2Ks3T2UOToWPIbfKeO8lVyFi48JXrYn0wW0J8V8/N6MaWq7AN7mLviqQElVBVjEsuQibUDHU3xRWyxghH7PT4YrNTBFyVM84on3ci+lD2kWxYYr/HjFazdkOx+sUod6bN/Htcsf+CXM8aruV7kkuru1ZU2N5c/m0XEexZPPBewLD+rZAeg+Gyvb39CI9ATVvB5Fj6kxDoAb7PbtOIyYmCfXXvnKBGNRmZTvasxptruIcbLdkk6obVTReOkrULFWRRZgdZo8B3ti9E/efEgl61Jj2tQ8Ds81uIn1cqf1c3idKppMhVm8fRvhlXjqc6C0W9y2DsmUckjkamMlPaxVHTPohKpCubrw5xmKUKlmQzW8YENrDSx0qvnF/BJI9lmiEyfpvg8n2+mdlNGfch6b8DFxfdoeioDrUdVtOgjEloRcMIacoxxMLRYswcj2QHqxxlD/EJUSzZpx2XUZQx2ecOtxCAjDBx54TjPVj3sR3AaMbO9Kc11wli5lSNGb0E2nUEoV/X2bV2Ko1pCIw0D2+twmjPM9ag5xbtz4Xox0p3vMyVGERNnHqD/B8RJthz2zVy+QY6hOSsa50VgUGJEPSuuN9cI8H9R6F8d6eAwW4lNOPt1g1yOAGo7YX6jPX++EEZWH/b7p+/FjF3z767XdvTGp7/I2ELcm0FF9+ZZjSTr++FQzjHawXigGFmK6rGB16vvmdHThLP/sY+GuM72Dgt7Vb4u/XXSxOJqPTXf2V0DmOu8XOrj+u3touz6X2K4/GptmVGkfgtRtKQquJET7QHTLQUJEhDtPwFwgto70DfgYy6mR4xhndbymHexApAGY5stR1/tiDZ92ri/dAYzLGT4yofW3+JRLbcleYdNLMf1g16LFKSOtUBe0+XoQjUzSWHrVDKqSExhG4Ap93QJa51Xs/zW+uWjO7pzoD3NK9nDIGemJzWulSqCjSzjaN9syD3lFtbRAeu5O7b3t8LSUmOFgHL4BM0R/s+LMgn661NbkWBhnryqRlMVwh+7HsJ0fiehlLarLYzD6mp3/NQv3DPGx5d9gcGcL8g2gyXwJsvSiFnLPdXMId+h+ENcR2pFAm4QIjp8AopftvOQqTEb8mKnf4yknnL4UiCS3teP1T7X5By66byGAVoTcT9E8Hvje6rSp/bQdaJavwYGw+0MxKULzgi7stMRXRbwOKGdwsX0+CbQ+6FlPHukYrIfpZwJKl1C+5jVyh1/JcMIYnOyzEnhYpQN5HVPcMLHdkkj3tsVG6Ag/w9SHSBCz8NbsVwPMZQfr+SUjt0456t0LsxIqgB9kiwxeRxW9MZjofooI3HBAMEXYMhQnFBXPtWl52UVn3XZe9pg0bUxujx6p3Qe5x1WNrHYs8M+OSov1ocVbrbMd6og5z+u44o0pX6YfGbjOIM9fkw/bj8sWmtdbqs/ryJKP6XIn1MwlEgTSoMmG1YflCu3i2dTBpzZpvsTD9n+TgSsCXm4mBXPZe1ZXoZm9dbyOLi4RWNhuQqg3iQ003KPu9hs7D0p0WKIkO1jW4omP3yAEN9YA/sjYxsJqBR9wKd5zJdf/K1F4nJCGhODex5DlWtJmxbJDWlYC3fN3Sqb/IeVY6L6DFNw6HGh13Raw6YiOgPsyXVSOFf7Td1yIgz/mxOYDrcGUoOXMmg5ZeWBH8Qtlz+C/pP+XONizjxTcblWY3KZaE/N6seF8asE7LRQpWf4/ibHHcbkT0+hAc2wZuAaB95kecNHcDt5lVS8lx9+TLG0MzLlNDC4Gx8z/xSjwFJOLdFTAnkfJBislwz+QExj6XVmS69H1BG/5se7wfWYMPRgRfIKTObW9iZZVNCdc3LnSI7NyQOGL6+tvNYRy7oV7CwNpHpGD6yzBLUsWuZI3bhc/ldEYofNl8MZq5O8vqRLU7Fb2keZnwc/KMzw5RfdDGIxgW3JwD0vwi8ll53RyU9Z7VawYJJFMlLpglwPwQ0mXE49t60Gp4w02NNVzyLEzH04XL4Jf+BwJLRJceHMh/Wa8Snpd3Kb4QgAAEmJJREFUvz+9iiuk/JnxUvB+1OVrM2LmbCfHf2Z/Np0rbNe8COcKwebpIRESukR10unXsbSFD/Q/P/TwvboUg093TXexA29F43t5bo6oYXK/gxx2cKTvhloSWLmTyBkCvGViCZ3CH3f69knMzgw1p/jGyg8jRRvuffKvR42D78JPNqiURGpNwy2uDOUG3Q+T0C42SVOV0C726wqa0+ZisFf1vnrdmPP3UsPITzdEGPUWDn++TFxOW6nHabWTbThB90ioeg1INtxplRASofvLFW3zslJQWN/p240/lBfnflxblz797/pnwnE7ynIdHndD8zwbrDfkAt3BxkwhSbjbJWRFtbfdj9eLfji1cG2KjCY1Ap97JzMuhHnlpEqhU5mUziR6GIZtvJTRVNXmOvrXMfUMF56q4ITIdpI/zp0ShYnQPvrtsGqvqWeb/NdPca5tq3Wuu+EfdnZqYPUb3xJTeV59SVJ+Mfoj4QifSb9/Rc6w4a4PudA3bz1Qx0YkldD5rYStortLmvnzEL6AwyipqnMdC3bWtnOA7reBUfkckjGIoeYsJXt3aeMvVHbDF4iQ6jlxicSxieE+7Kd7FLDvYQBJsItHsJLsOdJ4ouYIX8C6rzStVVjj2UaPevbTvd4UpAItomVBaeosJLuj1NhVC3yBIVJbnujMWH4sOyFyZHdwLqCqH/vp7gSLU/YgmkG0mn1kvyF1QxhmYhnJOce92+KMxGLY3ebG/oZMPrAEjQNERyo/ZxnX+VFSt/MUvoIJpa+r5pbWUsDoCo+erKe7PuwVU04U7GFWkd3+ndTNPMDg7kmjrELB5/NzUZdzP89+ayYbFJe/RRKqTjGLyL5Kem3FXXg6hLACLdQyYyradCuJ9TL20/0kpOuguitJqHrscbsHSg/CuurCyf4EWY9ddrgjLWn5G/vpHgrhkOk9klBDxrKD66pPpe9jghF4CfW7oOj0XaRDN+XA8GxRI0DrqUQrPc1YEWWyPyJ9F9Phs4GEd6GqDC9DWNaCC8OEnwC8U9OIvtUH2zOf7M/60P6T5W+Dq1LQjvCjE6dzgO5zAa5I31Ekkd6pYTjXNa7IKHXxgZtjwZux6NIKoYxN/I4DdNd5hO4ksDMmiXSTKaPJ3nW/rCcivFTJNAuXMjdT7xw+YiYH6M5Ld0fWfqULSaBBFgwm+0RZk+z038CzVn7Bp0xjL+oflgVcoLthAbL+44iWdHkz9nbXvSCrikhnL3iRMrx+gdeUnaEGrlygO68BOc42NpQkzlhLZpLdV6Y7VjAZvMhI3M8k71SqELQ3coLuvZJRs+V6xJLEucyagVxXfyQzbUhzK3iVWfhbggyl3OGDH84JuvMmTEI8BaM0kjD7RjCO7HGbZMMugC6ilU+HNjtTnkGnfpQbdNdxRhzQpPqYJEzPOIZZ7NfkuHMXQVexWE7ToVOeDKHVyg2680I/QzyLrSTbifYfxiSyv3GSA3Ii+PMxni5tqlE3saZwhO68hWVop5FJsjK70xrGcL3rP+XpBR0AXcaRxuYuCD1XWrjSHFUlG82nbUry9aIZwAyuq7bIFW64CY2fXqJVmwLqjvdqzowCsUpGq9FuIVnQdVSbCUaMfLEe6E9zlRPdNxx1A3bSXK7QnXfeC6kFx7Qgkh4khadERpyQDymwCFVrNv1vIp09lGHVbOQM3XlBSA9Bdf9u5CDavFEo14fky0lCYG+/CCItxHVeUE+BC+vEHb7XIzVum0awvbvKIsVx3SRBznQ4tXOwi72RkIGsEkgdnIM3d+jOO4IyI0UjiWDezLYhiuE6/6y8DUZ0vEALfUkux1aAEOvVWsGlUX4L+yGckDib3BfOtp8iuD5H7swgw5egD0gdySiGZjKKJ865M1vInOElE+pXexDeq6PPEJtHqFbLJ8x17QL5B61ZgXr2VJPusIs0ha5rbRd2sN0ns1T2yQ0+jcCnzJ+IbeLOOJJcFydSMNTGRwNWWqIAn8cDpBaE4kXs8EaaBWtf6S/zrzyLEApCq/aT2oRKnS4prpdkU5m/NROQnGzfqpBo5Ua0BrNaBxvYMF34qkRi2Sy7x50oD2H0m288qXlkx1cS4fq6u5QYeAzdxhJPUVSo8h5qgukYvxDGs13wuxngLk/MP2sN9cPr7kfqyZ5Be6hJ3HKHmmbR3aPBsxXo6eiJPJmbP3nzf9i7E78a8z0O4J0Wp1QiJUm0kbQhSillSoosWVpcmYoktFCTEt1etsZONWiyU9mKoiy3JkuRwU3hNbIvuRfDMGPnuue+XnNn7rVUz3mec86z/Pq8/4A65/v79Ov3/J7fwvcOfuLvI7Vem6WpQ+1i+o90J+LY+R7tVhoqMusuj2hOPXRlfJKfwSRuO0m1lczPwN5YYMvvuE/+Y5Zcqo+ZlKtHuwI599m5e9PznKJum7Txj6X7Ydz/ynRJ5TQHziORNIb5hNU+fqe9zR8dtt5tqdaU6j/qRXtKUmXNXVZOWXJ11JB/1I1zF6jR/iQpDIfs0Td4cVJ6+0kMr4dYxvuzUd3//GbTK6Ubdhl5fUV/Ac2KOjZmqXpHaMt3sO6Yx+D9jkcDo18mbojhzbjXdTeDL7DktZoS7/1/PeoHaU8LmdCHwb221omHFN9zTV0otyM4LG6VMXopXMToAD+LF/y6rTGe7jyXXuIoIUy6a32U3INS7wczev0z/WlunSG3tyh6bq1DlhxeN2ksy3Zn1tGOSmDw67QPjhXxLhchb2iMZwZNdlYSBtePHj2106T/C21XdDSHfsuqfEh++06x19isjTSRJerjk1MZPyqesaA/gnHax9O1VW7HpTy2cnaWYFbLKCm9/eSvlNaiLtvw99FM5mYzA9MPKbA3EG05x+jkaPHi5GBL5r/2Av3TwKy8RvI5Gu6TKJt3SnZvJUHZ9OmirrM055aLvP3ojlVVrCP2uSv05bhq0uAgWnM0Jn7eZTINPXtMpjm20768z5L/4ZhbHNjkC9aNjlnC27HX77Ovs4v+4ZaeZV4ndraVZkg87vDCdZvZmWlzGFvoJMX+VZWAl9fzZD1hUev1NXqz+DMe6gsmIF0XPKm53P+jEa/muF7nnsV0VxIk988niA8vYvRzPOac2vtticvoL2OvM/0rv9zHb2OqtVj+aloT5/u/Cmh8Alxstszx+tmbclhFLrpE55VMp/qTsUKMSQfLbb4ZcZsfGOkqCdq+L7pgR3uZWt9h7nL3mX1jNsT0nRV3c0J3rt+aqFlmjL2R/1PNCZ+XFaE+gasTp70+M7NaXrtoTX+RPuvTQ++tVVMCTn15HpF2jS3KItUg7raUTy3GQ/xTLVEvHmhn3cj0+BFnFIbqn8aGKCmmpTVGV3g/nKCOcvGFfWMvIQ0j3VCZZvj6Uy01bvthoHfwu/YoFc/EqDS+DdMIpWlcaeTopjtzC6uDR9J/83VAmXjqShOzwrlczx+Ius11dbV3M+VZvT6/a2Po9KXlFTMSvdZd9bVVRZz4bkZTbxj3c3S5lGlIVtpu6/8dGmMQ4BeZtZY3QdI9sG2te1Jp3y1VszKWG3UUIUCCotX06SwfTrN9DFrXM0eDGn3+MwirrUZbgcwcmlkF1PMxiwP4RdN2NfvW3zofM3kgK/vmFg+qNOSx8t96+Qsp3tVovFqFCT2QTUjzG08tEhW9F2tUndQ7o3LWYagMMllF9a4k00txIxr1H+1oXUIwJhj9O8iiknKXtdipViGBt79Df7N7UClaDGRQK9UmhIIH8v2tnnVOzHYa+eBtL8jgsXQxG/DtVXld9GZfWy5mlnXJ8BUpWFEIMpD6IG+dIX3iZH1SbNM3cSmzoItzLt79B6IOMj4svqfTufod/5FpH6+VsTdsKKOkG65fWdYRLQVyQPe+2FaZt4p9aS5jMXo6eASzsxuVhxxP0kIjgdzibsfg6IzFod7nN0ux17J7/KPIy0zPwLBJzmuH9gG5UrVjmEaJyezQtGent7wb2eOTuXD1HiMnLjh9/0h9prGEMYsf4jDBDgro3RMkshIbmA0IsLa2Xtp/gJmBHA4kXf8c705BQY+qtyS8YjULbQKKi3skj7KuMQ37I0ChvHkTduU8tAYoWIqYJ2n/Bm0BCje/FS/CHoGWABas0uNB2LWnoiGADRlduE97CZoB2FE9hvO0v0UrAEuGuXCd9hA0ArDFNIrjtOO0MmCP+gtu046zV4FNwTpcpn0CGgDYFGfGYdoPof7AKtvZ3KU9G+UHlp9VIzhLew6qD2yr0+Yq7s9RfGBbkgVHaR+ti+ID25xHcBT3CqxuB9aJfuJoDbBPaxQfWFe0h5u4L/sLag+sM3LiJu4G6ejegf3RzGANbvI+7hjyDqyrsuHoYdXiuieqDyzrtp+rmXeV3Q/boP7Arhvc7eDrNKMMIxpglasVh8vE2vqc7o4mAPZoPVbhchWweErhWA+0ArAlJJrrLXyjv7tS1RUNAWxoX8iH05XMhtTU5i3C1QWgaDP78+bwPIOcIQOPFPztfMycB3OHdcDB16CA7t1fRcJLysO72GwM+Hpnr8MDkyd5PcoLMcJ1HiD76N1aIgwaFi7fPa789yg0GcgwOZOvKRESsxULw3tjpAMMTVgjERrjFdkLOqDlgIngaxLh0S6/PQfXrQJ9/barSIRoSWBqD7Qe0DVxnkSYNCvOY0wDdJ3qLNC8SwwSSvHYCvR08DYUat4l4726oQGBFssIsWDzrpl7Ew0I9IbvayTC9X0VGhBoibEScN6dNqABgQ71MzkCzns57twGWlQrxws477tj0YLQYvLe6ghWywO9vIdbCzfvPeejAYHe+H2Hk3DzvsYeDQj0xB/UEGrc9Z7g9SrQZH90qFDzvn4kmg9o6ncyWqBx75SK1gPa+oZqCzPvyaZoPKDNI12Yb5yC8LAKTCTVDBJg3NtiNAOMtH5aoim8vL/HXg9gRje8Qoe74CqbbXW53FASuullfVh55jhj6ZYnb92GdgOmgU+1Y3VIY9D/X1FHC4qfz7HX//yjiJxvlhWvtHMyofgJT9FqwJioNHGKote6mDtFpV35Zla1VJusO4ZUJvo1fRus+AnaDGThVmmniH2sg4Iqtqf/luHJ5OgMj5g+L80b/7HpaDCQ0YVLCfI6NlXPuj7yXt4ifdn/Cp/6/6r8Ze9+Bq0Fsut6NfuVLDfKG88e6F2Z5CbXz2Q6M/9ng89mIi3RVCAfHoeeXXQxphdzncUlky4lDVPYs0XG3rCPL5d6g1YCeXKOn38notd4imVkev3XBw7OKrVk4VA7rfg75X+ueRAfQAOBAuj3js+rTMleuDoidH+D3/eXwxoObrJb7X895dKOOdVsbyvqsarwv9tSvNEw0CL+6QQnTJcsQx2gpYgtxn1m0HJgAQEAAAAAAAAAABMdL52oX+MyJWBj52smPa9ZmI/ZarV+t93R23Wp8RfaoDxAGOfiw8pNrGG3mXci/5+9VVEjIEi/+X7N3P9nuKvmGO4OBoJ0T/m62YVne+pPLkeVgBghFyluROtcswpHJwEpHLzMKVbQDw8s0kKdgAyicMq94F3SMKQBUhTtpNwjNS9VhDoBGXZQn/VhfqUd6gREUA8fQJn3JQW6KBQQwbSPAWXeTe61RqGACJ6O1GccjBuLOgEZqqQ4xsmvGnUCMoYzk1tRxl3zPpbRABl8t1J377OxORUI6d4LqQ90N/wFdQIybDCh7t5L9FEnIILbCOq4R8eiTkAE0ULquA/PQ52ADKcMKeOuUYcyARl8bai79x+wvQnIMDWTOu4z1FAnIIJuGHXcfbAOGMigFUgd9zd4rwpkUE+jjnsCxu5AiALquG9HlYAQ96jjjltUgRR3KVfNiM+iSkCILMq4a/qiSkCIY5RxN/dAlYAQxZRxH4FpdyDFDcon1cEoEpDiCeUKsQUoEpAinyruZsNQJCDFC6q4b0KNgBjbqeJ+HjUCUqjnUp2b54EiASlUoyjibocaATG0KijiXoUaATlxf0lxDAGORAVyiAKxGhJazqNqYbNpN+6GEgFB7mk0F/e/o0BAklVtm0l7K1cUCEgSG93c4e6oDxBFNwpvVKHluNH0sXl7bFEeIMu2oCbjXo6Ls4EwouvaTcV9NaoDpFn+a1Nx74PiAGnUjzV1hQdOugby9EvUaTzuV1AbIM/IBJVG456IwyGBQAf+s3Cs6f2r4GjQjIJhCKLPeWFJ7tqbR0NmFAxHIFGNZTGB77HRgBkFwxMU/3bE3LlnOhouo2B4Aq7+30rox0NuHw2WUTBcAUdr9ZbbqLeQBYyGyigYxiDjVvuEJ5pBWo4K1hFPFi8ZmYEAAOIK/kUEclRVAAAAAElFTkSuQmCC;" vertex="1" parent="1">
          <mxGeometry x="403.43" y="380" width="73.15" height="50" as="geometry" />
        </mxCell>
        <mxCell id="RrAkKvRdYdzd3wH-LYKH-6" value="" style="shape=image;verticalLabelPosition=bottom;labelBackgroundColor=default;verticalAlign=top;aspect=fixed;imageAspect=0;image=data:image/png,iVBORw0KGgoAAAANSUhEUgAAAcUAAAIICAYAAAAfX/VzAAAgAElEQVR4Xu2dC5RdRZmo/+5OOiEJj5AEiZhB1BEFHEVQvD4B35hRwAcKowIhEHGuS13q8rruXOC6XDpzR5cvJKfzMuITHV8gimMEnUEdEEZRUQRRBFEIEBIIeXX3uXUCsTud0332rl17/1X1f+1aLiBV9f/1/f/ZX07tPvv0CT8QgIAOgRVyrIzKlV2DnyN9OkkRFQK2CfDCs11/dq9BoCXDLuxAodDIsRAmBkEgFAGkGIok60CgF4EV8j73zvADvYZ1+fNROaegRD0WZwoEIDBGACnSDRBogkBL2gHCfMfJ8eUB1mEJCEBgEgJIkdaAQJ0Ewshw9wxH5RB5i/yhzrRZGwJWCSBFq5Vn3/USaMlfXIBH1RqE+4214mVxmwSQos26s+u6CKyQZ7n7hj+ua/ku6253R6ozGoxHKAhkTQApZl1eNtcogTqOSotuoE/+r5wt5xUdzjgIQKA7AaRIZ0CgKgFNGU7Mfa7MktfJlqpbYj4ErBJAilYrz76rE1gu33IfsT+h+kI1rMD9xhqgsqQFAkjRQpXZY1gCLfduTGRz2EVrWK0td8uymn/Zp4a0WRICmgSQoiZ9YqdHIKaj0qL02vJ6J8cvFR3OOAhYJoAULVefvRcnkKIMJ+6OI9Xi9WakWQJI0Wzp2XghAi051Y37XKGxKQzqc0/WOVv6U0iVHCGgQQApalAnZgoE+qTlPnGY788N7vONT813e+wMAn4EkKIfN2blTCCHo9Ki9RmWw+St8uuiwxkHgdwJIMXcK8z+ihNoyR/d4EXFJ2Q0kvuNGRWTrVQhgBSr0GNuHgRWuAdsj8qteWym0i74iqpK+JicAwGkmEMV2YM/AUtHpUUp9cnX3C/jnFx0OOMgkBMBpJhTNdlLcQLIsDerEdlfzpUNvQcyAgL5EECK+dSSnRQhMCRD7kMJS4sMZcwjBLjfSCsYIoAUDRXb9FY/InvJbHnININqm9/iPsLRebwdPxDImgBSzLq8bG4nAY5KwzVCv/yje599YbgFWQkCcRFAinHVg2xCEkCGIWnuvhZHqvWxZWVVAkhRFT/BayHQkte6dS+pZW0WRY70QNYEkGLW5TW4Od4dNl/0tvzFfQvHwuYDExEC4QkgxfBMWVGDADLUoL57zAF5gZwlP9RPhAwg4E8AKfqzY2YMBFpyg0vjKTGkQg6PEOB+I62QMAGkmHDxTKe+2j2jdMfOZ5XyEyeBtvsIB19RFWdtyGoKAkiR9kiPAEelKdXsv50cn55SwuRqmwBStF3/tHaPDNOq1/hsB2Seu994X7obIHMrBJCilUqnvM8VcpH7FotlKW+B3LnfSA+kQQApplEnm1meL4PuF/232dx81rsecUeq07LeIZtLlgBSTLZ0mSfOUWnmBXbb65NPu6+oOiP/jbLDlAggxZSqZSHXlgy7bQ5Y2Cp75EiVHoiPAFKMryY2M7pITnK/wP9Vm5tn1zsJ8PlGGiECAkgxgiKYT4GjUvMtMA4AX1FFN6gSQIqq+I0HR4bGG2CK7U9z9xqXuHuO/ECgYQJIsWHghHMEWvIb9/+HwgICPQlwpNoTEQPCEkCKYXmy2lQElsvfut84/C2QIFCaAHIsjYwJfgSQoh83ZpUlwFFpWWKM35PAn9wv4zwGMBCokwBSrJMua3eOSttggEBQAjPkCDldfhV0TRaDwCMEkCKtUA+B5bLWHZW+qZ7FWRUCjgBHqrRBDQSQYg1QTS/5GZktW+RB0wzYfJME+IqqJmkbiIUUDRS5sS1yVNoYagJNINAn17hHxh0DFwhUJYAUqxJkfue+4RaHYSYoIKBOYK570PjrZEQ9DxJIlgBSTLZ0ESTekre5LD4WQSakAIHdCXC/kY7wJIAUPcEZn9bn3h2OGmfA9uMnwFdUxV+j6DJEitGVJPKEuG8YeYFIrwuBi9xvqp4LGQgUIYAUi1BiTOe+4R0Ow0GggECyBDhSTbZ0TSaOFJuknWKsC+XZ7lcXrk4xdXKGQFcCyJHGmIIAUqQ9JifAUSndkS+Bze5IdU6+22NnvgSQoi+5nOchw5yry97GE2jLq2UZX25NU4wRQIp0wxiBIVnnnlR6PEggYI4AR6rmSj7ZhpEirSDyCXm0DMqfQAEB8wSQo/kWQIrWW4CjUusdwP4nEmjLX9yR6kLA2CSAFG3WXWS57HDfYjHN6vbZNwR6EmjL4U6ON/Ycx4CsCCDFrMpZYDMt+aAb9d4CIxkCAQh0CHCkaqoPkKKVcq9xD+zevvPB3fxAAAI+BJCjD7Xk5iDF5ErmkTD3DT2gMQUCXQi03VdULeMrqnLuDaSYc3WXyz3uvuG8nLfI3iCgQmCa7CNL5AGV2AStlQBSrBWv0uJDcqb7vOEqpeiEhYAdAhypZldrpJhXSflKp7zqyW7SINB2v4zTn0aqZNmLAFLsRSiVP+e+YSqVIs98CXzUyfEd+W7Pxs6QYup1bu38HNWTU98G+UMgGwIcqSZdSqSYavmWy/9wv0Tzo1TTJ28IZE8AOSZZYqSYYtk4Kk2xauRsk8BWd6S6l82tp7lrpJhS3Voy6tKlZinVjFwh0CHQL6+VpfIVYMRPgAts/DUSGXLf99aWk1JIlRwhAIEpCHCkGn17IMWYS/RJOVimyx9iTpHcIAABDwLI0QNaM1OQYjOcy0fhvmF5ZsyAQEoE+uQuOVsOTCllC7kixdiq3JJtLqXB2NIiHwhAoDYCf+d+GecXta3OwqUIIMVSuGocPCTvd/cN/3eNEVgaAhCImQBHqlFUBylql+H/yWz3aOEHtdMgPgQgEAkB5KhaCKSoiZ/7hpr0iQ2BmAn8zB2pHhlzgrnmhhQ1KtuS9S7sfI3QxIQABBIiMFv2lX+QTQllnHyqSLHJEg65j++23acO+YEABCBQhgBHqmVoVRqLFCvhKzj5fPc8i4UyUnA0wyAAAQh0J4Aca+8MpFg3Yu4b1k2Y9SFgjcCH3P3G/2Vt003tFynWRbolN7mln1jX8qwLAQgYJ/Bn97yr82XYOIXg20eKoZHylU6hibIeBCAwFQGOVIP2B1IMiZOj0pA0WQsCEChOYNgdqU4vPpyRkxFAiiF6AxmGoMgaEIBAdQInOTl+vfoydldAilVq35JvuOmvrLIEcyEAAQgEJ8CRqjdSpOiD7lPyOBmQ3/lMZQ4EIACBxgggx9KokWJZZByVliXGeAhAQJfAne5I9SDdFNKJjhSL1qq181efB4oOZxwEIACBqAj0uWepni0/iyqnCJNBir2KskI+KKPy3l7D+HMIQAACSRDgSHXKMiHFyfB8xn2l0xa+0imJFzlJQgAC5Qkgx67MkGI3LNw3LP8CYwYEIJAegbZcIcvkZeklXl/GSHE825Zsdv86qz7crAwBCEAgQgKDMlfOkPsjzKzxlJBiB/lF7iud+vlKp8a7j4AQgEBcBDhSFaTIUWlcL0qygQAE9AkYlqNdKSJD/RceGUAAAjETuMB9vvH8mBOsIzd7UmzJHQ4kH2Sto5tYEwIQyJHAoJPjjhw31m1PdqTYkmMcgJ9YKSz7hAAEIBCUgJEjVRtS5Kg06GuDxSAAAbMEHnLvGmfnvPu8pYgMc+5d9gYBCGgRaLtvB1oml2qFrzNunlJcLle636s9tk5wrA0BCEDAPIFz3IfZRNo5cchLihfKIpkmf8ypQOwFAhCAQPQEMrrfmI8UOSqN/nVDghCAQNYEfuXuNx6R+g7Tl+KQ+w6LNg8hSL0RyR8CEMiEQL8c5p4R9utUd5OuFIfkI06G70gVPHlDAAIQyJpAokeq6UnxfHdjd6GMZN1MbA4CEIBALgQSk2NaUuS+YS4vE/YBAQhYItAnl8jZckoKW05Dii3Z5mAOpgCUHCEAAQhAYBICI7K/nCsbYuYTtxRb7neZRJbHDJDcIAABCECgJIGIj1TjlSJHpSW7jOEQgAAEkiLwgHvbs09sGccnRWQYW4+QDwQgAIE6CbzDyfGjdQYos3Y8UmzJepf4/DLJMxYCEIAABDIh8GeZ4b69cbv2bvSluFKOdB+wuF4bBPEhAAEIQCACAsr3G3WlyFFpBB1IChCAAASiI3CHO1JdpJGVjhSRoUatiQkBCEAgLQJteZH7iqp1TSbdrBSH5Kfu0WxHNblBYkEAAhCAQOIEGvyKqmak+EmZJ9PlnsTLQvoQgAAEIKBJoIH7jfVLkaNSzRYiNgQgAIG8CLTlKnekelxdm6pPisiwrpqxLgQgAAEIDMvfylvlltAgwkuxJatdkmeETpT1IAABCEAAAnsQCHykGk6KLXfXUPQ/eEnLQAACEICAOQLb3Ec4ZobYdRgpclQaohasAQEIQAACVQi05VPufuNbqyxRTYotGXbBB6okwFwIQAACEIBAUALbZF95m2zyWdNPihfJUumXIZ+AzIEABCAAAQg0QsDjfmN5KXJU2kgtCQIBCEAAAkEI3OXuNx5YdKXiUkSGRZkyDgIQgAAEYiPQL2e6M841vdLqLcWWbHSLRPdFkL02xp9DAAIQgAAEuhAYdO8cd0xGZnIptuQYN+knIIUABCAAAQhkRqDtxNjfbU/dpchRaWb1ZzsQgAAEILAHgQF5rpwlV4//77tLsbXzm+/Xgw4CEIAABCBggkBbLnefbXzFrr2OSfF8GZSFss0EBDYJAQhAAAIQGCPwLnec+uHOv45JkSNTEw1ywMwD5LkHPlcOmHWA3PHgHXL1XVfLhm0bTOydTUIAAhCYlMAjn2l8WIoIMatOOf2Jp8vqF3Sey17t57p7rpNnfu2Z7nuh29UWYjYEIiQwZ/ocueHVN8hj935s6exeecUr5bI/XlZ6HhMiJ+DEiBQjr1HR9EaXjhYdWmncEV8+Qm68/8ZKazAZAloEvv2yb8tLF700aPh1f1onL778xUHXZDElAjul2JL3ufAfUEqBsBUI/PzVP5en7P+UCitUm7r2t2vljB/wLWHVKDK7CQJN/aWxf0XX3/JvYovECEGgTz7RkSJnYyFgNrjG/W++X/YZjOt5Cl+59SvyunWva5ACoSDQm0BTMpyYCXLsXZtYRyDFWCvTJa9rT7xWjlpwVPQZc0GIvkTZJ/jgGQ/KrGmzVPe58jcr5ez/OFs1B4KXJ4AUyzNrfMa0vmmy/aztjcetGhA5ViXIfB8CWu8OJ8uV14FPFfXmIEU99oUir3/jepk3c16hsTEOarfbMrCSr9yMsTa55XTYfofJL1/7yyi3hRijLEvXpJBixLWK7W+8VVCtuWmNLPnhkipLMBcCkxL40DM/JO956nuiJjSwYoCPN0VdoYeTQ4qRFiknIY5HzN+YI224hNNKQYi78NL/8TcaUoywRrkKcRfqU9adIl++9csRkiel1Ah0Pnh/6+tvTSptxBh3uZBiZPXJXYi7cI+2R2XaymmR0Sed1Aik+npBjPF2GlKMqDapvsCrIOTiUIWe7bmpv17o/Tj7FylGUpfb3nCbLJqzKJJsmk2Di0OzvHOItun0TdJ5dmnKP1+45Qty2pWnpbyFLHNHipGUNfW/9VbFiBirErQ1P5fXC30fX98ixQhqkssLvCrKvdfsLZuHN1ddhvmZE8jt9YIY42pYpKhcj1++5pdy2NzDlLOIJ/zctXNl4/aN8SREJlERGOwflK1LtkaVU9VkkGJVgmHnI8WwPEuvltvfeksD6DJhcOWgDLeHQyzFGpkRyPX1ghjjaVSkqFiLX7zmF3L43MMVM4g3NBeJeGujmRlS1KRvIzZSVKxzri/wUEgRYyiSeaxzw6tvkCP2PyKPzUzYxdaRrTJrte63emQJ1mNTSNEDWogpj571aLnjtDtCLJX1Gogx6/KW2lzuf4mk10u1Q22DkWJtaKdeOPcXeEisXCxC0kx3rdxfM/R5HL2JFJXqkPsLPCTWkfaITF85PeSSrJUYgdOecJpcfNzFiWVdLt17t94rCy5eUG4So4MTQIrBkRZbECkW47Rr1Ed/8VF550/eWW4So7MhYOX1wrtF/ZZFigo1uObEa+ToBUcrRE475P5r95f7t9+f9ibI3osAUvTCxiQPAkjRA1rVKVZe4FU5dZvP36TroBr/mlZeM/S3fi8iRYUaWHmB14WWC0ddZONd18prZsaqGbJjdEe8hTCQGVJUKLKVF3idaBFjnXTjW9vKawYp6vceUlSogZUXeN1oEWPdhONZ38prBinq9xxSVKiBlRd43WgvuO4CueD6C+oOw/oRELDymkGK+s2GFBVqYOUF3gRa3i02QVk3Rp/0ycjSEd0kGoqOFBsCPUUYpKhQA6QYFjpiDMszttWQYmwVyTsfpKhQX6QYHjpiDM80lhWRYiyVsJEHUlSoM1KsBzpirIer9qpIUbsCtuIjRYV6I8V6oG/cvlHmrp1bz+KsqkYAKaqhNxkYKSqUHSnWB73zfNTOc1L5yYcAUsynlinsBCkqVAkp1gu9840anW/W4CcPAkgxjzqmsgukqFAppFg/dO4v1s+4qQhIsSnSxOkQQIoKfYAUm4GOGJvhXHcUpFg3YdYfTwApKvQDUmwOOmJsjnVdkZBiXWRZtxsBpKjQF0ixOejDo8MyuGqwuYBECk4AKQZHyoJTEECKCu2BFJuF/p7/eo/86w3/2mxQogUjgBSDoWShAgSQYgFIoYcgxdBEe683e/Vs2TKypfdARkRHAClGV5KsE0KKCuVFigrQXUjuL+pwrxoVKVYlyPwyBJBiGVqBxiLFQCA9lkGMHtCUpyBF5QIYC48UFQqOFBWgjwuJGHX5l42OFMsSY3wVAkixCj3PuUjRE1ygaSOjIzJ91fRAq7FM3QSQYt2EWX88AaSo0A9IUQH6hJDLb1wu5159rn4iZNCTAFLsiYgBAQkgxYAwiy6FFIuSqnccx6j18g21OlIMRZJ1ihBAikUoBR6DFAMDrbAcYqwAr6GpSLEh0ITZSQApKjQCUlSAPkVIxBhXPSZmgxTjrk9u2SFFhYoiRQXoPUIixvhqsisjpBhvbXLMDCkqVBUpKkDvEXLL8BaZvWZ2fImRkTvO6pORpTa+H3PGqhmyY3QHVVckgBQV4CNFBegFQn78lx+Xt//47QVGMqRJAkixSdrEQooKPYAUFaAXDLn3mr1l8/DmgqMZ1gQBpNgEZWKMHde3pA2OZgkgxWZ5l43G/cWyxOodjxTr5cvquxPgnaJCRyBFBeglQyLGksBqHI4Ua4TL0nsQQIoKTYEUFaB7hESMHtBqmIIUa4DKkpMSQIoKzYEUFaB7hBxtj8q0ldM8ZjIlJAGkGJIma/UigBR7Earhz5FiDVBrWvJzt3xO3njlG2tanWWLEECKRSgxJhQBpBiKZIl1kGIJWBEMPfCzB8rdW+6OIBObKSBFm3XX2jVSVCCPFBWgVwzJ/cWKACtMR4oV4DG1NAGkWBpZ9QlIsTpDjRUQowb1zgOaeaKNDnmbUZGiQt2RogL0QCERYyCQJZZBiiVgMbQyAaRYGWH5BZBieWYxzUCMzVYDKTbL23o0pKjQAUhRAXrAkNetv06e8fVnBFyRpaYigBTpjyYJIMUmaT8SCykqQA8ccp81+8iDww8GXpXluhFAivRFkwSQYpO0kaIC7fpCcoxaH9vxKyPFZjgT5WECSFGhE3inqAC9ppCIsSaw45ZFivUzJsIYAaSo0A1IUQF6jSERY41wd/7NnY9k1EuY1Xc/meCroxrvCKTYOPJaA460R2T6yum1xrC8OFK0XP3m9847xeaZC1JUgF5zyMv/eLksvmJxzVFsLo8UbdZda9dIUYE8UlSA3kDIx3/x8fL7B37fQCRbIZCirXpr7xYpKlQAKSpAbygk9xfDg0aK4Zmy4uQEkKJCdyBFBegNhkSMYWEjxbA8WW1qAkhRoUOQogL0hkMixnDAkWI4lqzUmwBS7M0o+AikGBxpdAu2220ZWDkQXV4pJoQUU6xaujkjRYXaIUUF6Aohf/DnH8hxlx2nEDmvkEgxr3rGvhukqFAhpKgAXSnkE774BLn1gVuVoucRFinmUcdUdoEUFSqFFBWgK4bk/mI1+EixGj9mlyOAFMvxCjIaKQbBmNQiiNG/XEjRnx0zyxNAiuWZVZ6BFCsjTHIBxOhXNqTox41ZfgSQoh+3SrOQYiV8SU9GjOXLhxTLM2OGPwGk6M/OeyZS9EaX/MQbN9woR3zliOT30eQGkGKTtImFFBV6ACkqQI8o5MGfP1hu33x7RBnFnQpSjLs+uWWHFBUqakWKZ/3wLFn5/JUKhOMPyTFq8RohxeKsGFmdAFKszrD0Cpak+I6nvEMOn3t4aUYWJiDGYlVGisU4MSoMAaQYhmOpVSxJcfVNq/n+yCm6AzH2fukgxd6MGBGOAFIMx7LwStak2AFjZc+Fm2DcQMQ4NTWk6NNVzPElgBR9yVWYZ0UQnXuKnXeKu36s7Ltsa3zxd1+UU79/atlpZsYjRTOljmKjSFGhDFbkMFGKvGOcvNkWfGaB3LvtXoVujD8kUoy/RjlliBQVqmlZihccdYH809P/SYF6/CE5Ru1eI6QYf+/mlCFSVKimZSl2cG8+Y7PsNW0vBfLxh0SMe9YIKcbftzlliBQVqmldihyjTt10iHF3PkhR4SJlOCRSVCg+UnwYuhUOPi2GGMeoIUWfDmKOLwGk6EuuwjwrMuj2izYTsVlhUbZdVt20Spb+cGnZaVmOR4pZljXaTSFFhdJYEUERKc4YmCFbztyiUIX4Q85aPUu2jmyNP9GaM0SKNQNm+d0IIEWFhkCKu0M/97Bz5ZPP+aRCJeIPyTGqCFKMv09zyhApKlQTKe4J3QoTn3azLkak6NM1zPElgBR9yVWYZ0UARY5Px2O0wsWndSyLESn6dAxzfAkgRV9yFeZZufiXlWIHqRU2ZdtneHRYBlcNlp2WxXikmEUZk9kEUlQolZULv48UEePkDXnpbZfKq777KoWO1Q2JFHX5W4uOFBUqjhSnhj7YPyhbl/Bbl90ozf/MfLlv230KXasXEinqsbcYGSkqVB0p9obe+XLiDz/rw70HGhxh7f4iUjTY5IpbRooK8JFiMegb3rxB9h3ct9hgY6MsiREpGmtu5e0iRYUCIMXi0K2wKk5kbKQVMSJFn+5gji8BpOhLrsI8Kxd631+0mYjWCi+flrIgRqTo0xnM8SWAFH3JVZhn5SIfSood1FaYlW2rr//h63Lyv59cdlpS45FiUuVKPlmkqFBCKxf4kFJEjJM36qMufpSs37peoZObCYkUm+FMlIcJIEWFTkCKftCXPmmptJ7X8puc+aycj1GRYubNG9n2kKJCQZCiP/QHTn9AZk+f7b9AxjNzFSNSzLhpI9waUlQoClKsBt0KPx9KOYoRKfp0AnN8CSBFX3IV5lm5qIe+pzgeuRWGPm2WmxiRok8XMMeXAFL0JVdhnpULep1S7OC3wrFsq123/jp5xtefUXZatOORYrSlyTIxpKhQVisX87qlOL1/umxbsk2hgvGHPPSSQ+XmjTfHn2iBDJFiAUgMCUYAKQZDWXwhpFicVa+RJx58onz1JV/tNczknw+sGJC2+1/qP0gx9QqmlT9SVKgXUgwLfdPpm2TO9DlhF81ktRzuLyLFTJoxkW0gRYVCIcXw0K0w9SGXuhiRok/VmeNLACn6kqswz8oFvO57ihNLYIWrT+ulLEak6FNx5vgSQIq+5CrMs3LxblqKnZJYYVu2/bYNb5O91uxVdloU45FiFGUwkwRSVCi1lQu3hhQtXUDLtu5J3z1JvnHbN8pOUx9vqaYzVs2QHaM71JlbTgApKlQfKdYL/fQnni6rX7C63iCJrp7iMSpSTLTZEk0bKSoUDinWD/32U2+Xg2YfVH+gBCOkJkakmGCTJZwyUlQoHlJsBroVzj40UxIjUvSpMHN8CSBFX3IV5lm5WGvcU5xYFiusfdoxFTEiRZ/qMseXAFL0JVdhnpULdQxS7JTJCu+yLblx+0aZu3Zu2WmNj0eKjSM3HRApKpTfykU6Fikixsmb/N3/9W758A0fVngVFA+JFIuzYmR1AkixOsPSKyDF0sgqT3jNIa+RS150SeV1clwg9mNUpJhj18W7J6SoUBukqADdhdzwpg2y74x9dYJHHjVmMSLFyJsns/SQokJBkaIC9EdCjiwdkc5Flp89CcQqRqRItzZJACk2SfuRWEhRAfq4kFb4+1COUYxI0aeSzPElgBR9yVWYZ+WiHNMv2kwsl5UalG3TbSPuGamr43pGKlIsW0XGVyGAFKvQ85xr5YIcsxQH+gZkx1k8Y7JbC6+5aY0s+eESz+4OPw0phmfKipMTQIoK3YEUFaB3CfmSg14i3znhO3EkE1kW8z8zX+7bdl8UWSHFKMpgJgmkqFBqpKgAfZKQfzrtT7Jw1sJ4Eoook1juLyLFiJrCQCpIUaHISFEB+hQhrdTDh3oMYkSKPpVjji8BpOhLrsI8KxfhmO8pTiyflZr4tK22GJGiT9WY40sAKfqSqzDPygU4JSl2ymmlLj6tqylGpOhTMeb4EkCKvuQqzLNy8U1Niohx8qb+5m3flBO/e2KFrvefihT92TGzPAGkWJ5Z5RlIsTLC2hY4YdEJctnLLqtt/ZQXPvjzB8vtm29vfAtIsXHkpgMiRYXyI0UF6CVC3nzKzfL4fR5fYoadoRrHqEjRTn/FsFOkqFAFpKgAvWRIKzUqiWXn8KbFiBR9qsQcXwJI0ZdchXlWLrgp3lMcX1YrdfJp5SbFiBR9KsQcXwJI0ZdchXlWLrapS7FTYiu1KtvObWnLwIqBstO8xiNFL2xM8iSAFD3BVZlm5UKbgxQR4+SdftP9N8mTv/zkKi+FQnORYiFMDApEACkGAllmGaRYhpb+2GMOOEZ+/Kof6ycSYQYLP7tQ7tpyV62ZIcVa8bL4BAJIUaElkKIC9Ioh73njPbL/zP0rrpLn9LrvLyLFPPsm1l0hRYXKIEUF6AFCjiwdkc4Fmp89CdQpRqRIxzVJACk2SfuRWEhRAXqgkFZq54OrLjEiRThfaLwAABwySURBVJ9qMMeXAFL0JVdhnpULay6/aDOx1FbqV7bF2233G6krw/9GKlIsWwnGVyGAFKvQ85xr5aKaqxT7pV+Glw57Vj/vadffc70c/bWjg24SKQbFyWI9CCBFhRZBigrQA4d83oHPkx/8/Q8Cr5rHckf+25Hy8/t+HmwzSDEYShYqQAApFoAUeghSDE1UZ73b3nCbLJqzSCd45FFD3l9EipEXO7P0kKJCQZGiAvSaQlqppQ++UGJEij70meNLACn6kqswz8qFNNd7ihNLb6WePi0fQoxI0Yc8c3wJIEVfchXmWbmIWpFipxWs1NSn7auKESn6UGeOLwGk6EuuwjwrF1BLUkSMk78gvven78lLLn+J9ysGKXqjY6IHAaToAa3qFKRYlWCc809YdIJc9rLL4kxOOasDP3ug3L3lbq8skKIXNiZ5EkCKnuCqTEOKVejFPff2U2+Xg2YfFHeSStn5HqMiRaWCGQ2LFBUKjxQVoDcY0kp9fZD6iBEp+pBmji8BpOhLrsI8KxdNa/cUx7eElRr7vAzKihEp+lBmji8BpOhLrsI8KxdMy1LstIeVOpd9KewY3SEzVs0oPA0pFkbFwAAEkGIAiGWXsHKxtC5FxDj5K+PLt35ZTll3SqGXDlIshIlBgQggxUAgyyyDFMvQSnvskfOOlOtOvi7tTdSU/dy1c2Xj9o09V0eKPRExICABpBgQZtGlkGJRUnmM2/DmDbLv4L55bCbwLorcX0SKgaGz3JQEkKJCgyBFBejKIa3U3AdzLzEiRR+qzPElgBR9yVWYZ+UCyT3F3ZvESt19XhpTiREp+hBlji8BpOhLrsI8KxdHpLhnk1ipfdmXx0h7RKavnN51GlIsS5PxVQggxSr0POdauTAixT0bpF/6ZXjpsGfn5D3tjKvOkLU3r91jk0gx77rHtjukqFARpKgAPaKQxy48Vr6/+PsRZRRPKtNWTJNR97/xP0gxnvpYyAQpKlQZKSpAjyzkja+9UZ6035MiyyqOdCbeX0SKcdTFShZIUaHSSFEBeoQhrfSBD/rxYkSKPgSZ40sAKfqSqzDPysWQe4q9m8RKL/QmseeIXWJEij70mONLACn6kqswz8qFECkWaxIr/VCMxtioa+6+Rp71jWcJUixLjvFVCCDFKvQ851q5CCLF4g1ipSeKE3l45ODKQel8XGNk6UjZqUmO7zwovfPAdH70CCBFBfZWLoBIsXhzHTnfPSP1JJ6R2o3YwIoBpFi8lRhZkQBSrAjQZzpS9KGW/5xrT7pWjpp/VP4bZYeTEuCdon5zIEWFGiBFBeiJhBw5a0T6+voSyZY0QxNAiqGJll8PKZZnVnkGUqyMMOsFrPRH1kX03BxS9AQXcBpSDAiz6FJWLnrcUyzaEXuOs9Ij/oTynIkU9euKFBVqYOWChxSrNZeVPqlGKa/ZSFG/nkhRoQZWLnZIsVpzzZsxT9a/aX21RZidFAGkqF8upKhQA6SoAD3RkFctvkqev/D5iWZP2mUJIMWyxMKPR4rhmfZcESn2RMSAcQT4jVQ77YAU9WuNFBVqgBQVoCce0krPJF6myukjxcoIKy+AFCsjLL+AlQsc9xTL98ZUM6z0TVhqaa2GFPXrhRQVamDl4oYUwzeXld4JTy6NFZGifp2QokINrFzYkGL45po/c77c/ca7wy/MilEQQIr6ZUCKCjVAigrQMwp58XEXy2lPOC2jHbGVXQSQon4vIEWFGiBFBeiZhbTSQ5mVred2kGJPRLUPQIq1I94zgJULGsen9TaXlT6ql2JcqyNF/XogRYUaWLmYIcX6m8tKL9VPMo4ISFG/DkhRoQZWLmRIsZnmstJPzdDUjYIUdfl3oiNFhRpYuYghxWaaa+7gXLn3zfc2E4wotRJAirXiLbQ4UiyEKewgpBiWJ6uJ/PMz/1ne/dR3gyJxAkhRv4BIUaEGSFEBuoGQD535kMwcmGlgp/luESnq1xYpKtQAKSpANxLSSm/lWk6kqF9ZpKhQAysXLu4pKjSXC2mlv3To1hsVKdbLt8jqSLEIpcBjrFy0kGLgximxnJUeK4EkiaFIUb9MSFGhBlYuWEhRobnGhbTSZ7qUw0ZHimF5+qyGFH2oVZxj5WKFFCs2SsXp5z39PDnvqPMqrsL0JgkgxSZpd4+FFBVqgBQVoBsNuen0TTJn+hyju09v20hRv2ZIUaEGSFEBuuGQVvothxIjRf0qIkWFGli5SHF8qtBck4S00nPxEPfLBCn6cQs5CymGpFlwLSsXKKRYsCEaGmal7xrCWUsYpFgL1lKLIsVSuMIMtnJxQoph+iXUKv3SL8NLh0Mtxzo1EECKNUAtuSRSLAksxHCkGIIia/gQWHLoElnx/BU+U5nTAAGk2ADkHiGQokINkKICdEL+lYCV/kux5EhRv2pIUaEGVi5KHJ8qNFfBkFZ6sCCOaIYhRf1SIEWFGli5ICFFheYqEdJKH5ZAoj4UKaqXgC8Z1iiBlYsRUtTornIxrfRiOSp6o5GiHvtdkXmnqFADKxcipKjQXCVDDvQNyI6zdpScxfC6CCDFusgWXxcpFmcVbCRSDIaShQIQeMWiV8ilL7s0wEosUZUAUqxKsPp8pFidYekVkGJpZEyomcDtp94uB80+qOYoLN+LAFLsRaj+P0eK9TPeIwJSVIBOyJ4ErPRlTxCKA5CiIvxHQiNFhRpYufhwT1GhuSqGtNKbFTHVNh0p1oa28MJIsTCqcAOtXHiQYrieaXIlK/3ZJNOisZBiUVL1jUOK9bGddGUrFx2kqNBcgUJa6dFAuIItgxSDofReCCl6o/OfaOWCgxT9e0R75uK/WSzffOk3tdMwFx8p6pccKSrUACkqQCdkaQK/e/3v5JC9Dyk9jwn+BJCiP7tQM5FiKJIl1kGKJWAxVJWAlV5VhTwuOFLUrwRSVKiBlQsNx6cKzVVDSCv9WgO60ksixdLIgk9AisGR9l7QykUGKfbuhVRGWOlZ7XogRe0KCA8E1yiBlQsMUtTorvpiWunb+gj2Xhkp9mZU9wjeKdZNuMv6Vi4uSFGhuWoMefyjj5fvveJ7NUZgaaSo3wNIUaEGSFEBOiGDELDSu0FgeSyCFD2gBZ6CFAMDLbKclQsL7xSLdEN6Y6z0r0ZlkKIG9d1jIkWFGli5qCBFheZqKKSVHm4I51/DIMWmie8ZDykq1MDKBQUpKjRXgyGt9HGDSAUpNkm7eyykqFADKxcTpKjQXA2G7HO/vD6ydKTBiPmHQor6NUaKCjWwIsWXf/vlcsUdVygQJmRTBE5YdIJc9rLLmgqXfRykqF9ipKhQAytSXHDxArl3670KhAnZJIE7T7tTDpx1YJMhs401feV0GWnz7luzwEhRgb4VKfav6FegS0gNAlZ6um62vGbqJtx7faTYm1HwEVYuILzAg7dO1Ata6es6i8Brpk66xdZGisU4BR1l5eLBCzxo2ySxmJXerqsYvGbqIlt8XaRYnFWwkVYuHLzAg7VMUgtZ6e86isJrpg6q5dZEiuV4BRlt5aLBCzxIuyS3yHELj5N1i9cll3cMCfOa0a8CUlSogQUpXrv+Wjnm68co0CVkDAQePP1BmTV9VgypJJUDUtQvF1JUqMFtb7hNFs1ZpBC5uZC8uJtjHWskC3/5C8n+7T96u3z8Vx8PuSRreRBAih7QQkzJ/YKBFEN0Sfpr5N7nISvEayYkTf+1kKI/u0ozc75YDI8Oy+CqwUp8mJwPgZx7PWSVkGJImv5rIUV/dpVm5nyh4MVdqTWym/y0eU+T60++Prt9hdzQ1X+5Wp536fNCLslangSQoie4qtP6pV+Glw5XXSbK+UgxyrKoJnXV4qvk+Qufr5pDzMF5zcRTHaSoWIsc3y3u9+n9ZNOOTYpUCR0rge1Ltsu0/mmxpqeaF1JUxb9bcKSoWIuj5h8l1550rWIG4UPz4g7PNKcVc/yLYNX68JqpSjDsfKQYlmfp1XK6SPDiLl1+kxNy6vkQBeR1E4JiuDWQYjiW3ivlcJHofN1N52tv+IFAEQIjZ41IX19fkaFZj0GI8ZUXKUZQk2tOvEaOXnB0BJn4p8CL25+d1Zk3n3KzPH6fx1vdvgyuHJThdp6/bJdyUZFiJNVL+d3inDVz5KHhhyIhSRopEXjBwhfIlYuvTCnlILnecO8N8rSvPi3IWiwSlgBSDMuz0mopivHyP14ui69YXGnfTIZAir1fpWqcrFShV+9cpFgv39Krp3Rx4Mk1pcvLhCkIDJ81LP19/VkzarfbMrByIOs9pr45pBhZBWcOzJSHzkzjKJK/7UbWPBmk86T9niQ3vvbGDHbSfQu8ZuIvLVKMsEYLZi6Qu954V4SZjaXEizvq8iSfXG6/ncpj3NJpSaQYca1iPEq9c/Od8pjPPyZiaqSWE4EYXwNl+e61ai/ZNrqt7DTGKxFAikrgi4aN6aKw/9r95f7t9xdNnXEQCEJgxsAM2XLmliBrNb0IJypNE68eDylWZ1j7Ct9f/H05duGxtceZKgAvblX8BHcEHrf34+SW19+SBAs+ppREmbomiRQTqp3Gu8ZDv3So3Lzp5oQokaoFAhqvhSJcX/ytF8u6O9cVGcqYSAkgxUgLM1VaTVwQzv3Pc2X5r5cnSIeULRE4ct6Rct3J16lvmZMU9RIESwApBkPZ/EL/8sx/kXc99V1BA++12v1SwAi/FBAUKos1QmDfwX1lw5s3NBKrE+SF33qhXHmnvafxNAZYJ9D6PhmSw6Utv9SJT9RQBB6116PkllNukdnTZ5da8vp7rpejv5b2c1dLbZjBpghc+JwL5S2HvSXIns/76Xny/v9+f5C1WCRSAue459TvTK3ltMgPBCAAAYMEZk2btXPXPL/XYPEnbvmvUhySDzstvhMkEIAABCAAAZMEpsk+skQeGPtCM94tmuwDNg0BCEDAPIG2jMoy2flQ2t2/5RMxmu8NAEAAAhAwR8Adm+7a855ffd2SEfeHeT+q3lzF2TAEIAABCOxBoC3D7h3i9PH/fU8p7vpT3jXSQRCAAAQgkCuBce8Oi0mxM2pIfuh+Aed5uTJhXxCAAAQgYI7Ab+QcefJku578neL4GRypmusaNgwBCEAgOwKTvDss/k5xIhGOVLPrETYEAQhAIHsCBWS4i0Gxd4rjiV0kB7lfw7kje4hsEAIQgAAE0iYwKn8vb5HLymyivBR3rb5c1rlfYj2+TDDGQgACEIAABBogsNHdN9zPJ46/FHdFa7kPPU78vKNPJsyBAAQgAAEIVCVQ4qi0W6jqUhyTI89PrVpM5kMAAhCAgB+BijLcFTScFDsrrnAf3xh1H+PgBwIQgAAEINAEgc4XIJ7tPoIf6CesFHclNSR/cJ9vPDhQjiwDAQhAAAIQmEhg2N033O1pNCEQ1SNFjlRD1IY1IAABCECgG4FAR6Xdlq5Xip2I58s0WSg7qCwEIAABCECgEoE5sr+cJhsqrdFjcv1SHHvX+D73jx+oczOsDQEIQAACWRL4kTsqfU4TO2tOimNy3Ob+cbCJzREDAhCAAAQSJtDnfjvl7Ga/tal5KY7JkY9wJNyrpA4BCECgVgI13jecKm89KXayWi0L3N3Gu2sFy+IQgAAEIJAOgWF3TPpW+ZFWwrpS3LXrIflP9ya5kfNiLdDEhQAEIACBKQnc6+4bztdmFIcUx45UeWScdkcQHwIQgEDTBJSOSrttMy4pjsmR+41NNyXxIAABCDRNICIZ7tp6nFLsZLfcfeVHn3yz6RoRDwIQgAAEaibQJx90v1Xa+ZhedD/xSnHsXeM97h/nRUeOhCAAAQhAoByBPtnuZDij3KRmR8cvRY5Um+0IokEAAhCog0CER6XdtpmOFDvZX+I+9L9BOh/+5wcCEIAABFIgMFv2lX+QTSmk2skxLSnuojokQ+4jHEtTgUyeEIAABAwSuNJ9xOL41PadphTHjlSH3T8OpAadfCEAAQhkS0Dh0WwhWaYtxTE58hGOkF3BWhCAAAR8CCRy33CqreUhxc4OL5LHusfG/t6njsyBAAQgAIEKBPrcE8nO1ns0W4XM95iajxR3bW1IrnT3G48NCYm1IAABCECgK4E73H3DRTmxyU+KY0eqI+4f+3MqFnuBAAQgEA2BDI5Ku7HMV4pjcuR+YzSvIhKBAASSJ5CpDHfVJX8pdnb6KTnU/Y7qb5JvRjYAAQhAQI/AO9xR6Uf1wjcT2YYUx941fs/94wubQUsUCEAAAlkQ2O5kGPWj2UJStiXFMTny+caQXcRaEIBAngQyPyrtVjSbUnyYRJ+0pPP9jfxAAAIQgMB4Ajvcl/3+o9xrEYplKT5c7xVylFPjTy0Wnz1DAAIQ2I1AW74my+Rky1SQ4tiR6tXuH59tuRnYOwQgYJRA4o9mC1k1pDiR5sNHqnAJ2WWsBQEIxEvA4H3DqYrBxb87He43xvsSJjMIQCAEgT450j2a7WchlsppDaQ4VTWH5EXukXH/nlPB2QsEIGCewM3uIxZPNE9hEgBIsUhnDMlNTo40URFWjIEABOIlwFFpz9ogxZ6Ixg1oOTXyAwEIQCA1AsiwcMWQYmFUjwxsu1/CGeLzjWWxMR4CEFAhsMwdlbZUIicaFCn6Fm5IFrv3jZf6TmceBCAAgRoJbHUy3KvG9bNdGilWLW1L1rsl5lddhvkQgAAEghDgqLQSRqRYCd+4ydxvDEWSdSAAAT8C+7l3hxv9pjJrFwGkGLIXzpdpslB2hFyStSAAAQj0ILDayXAJlMIQQIphOO6+Skve5v7Dx+pYmjUhAAEI7CTAo9lqaQSkWAvWRxZtyRb3TzPrDMHaEICAQQLcN6yt6EixNrTjFuZ+YxOUiQEBCwSOckel11vYqNYekWJT5D/ifj16tjzUVDjiQAACGRHok+vcc0qPzmhH0W4FKTZdmtbOe42de478QAACEOhNgKPS3owCjkCKAWGWWooj1VK4GAwBcwTOkX63Zx4t2XDhkWLDwPcIhxy1K0B8CMRFoE/e4I5KvxhXUnayQYox1HqFPMo9TfUvMaRCDhCAgBqB+90v0cxVi07gnQSQYkyN0JL/cOk8N6aUyAUCEGiAAPcNG4BcLARSLMap2VEcqTbLm2gQ0CKwWWbJO3d+npmfSAggxUgK0TUN5BhzdcgNAlUIXOSOSs+tsgBz6yGAFOvhGm7VT8nfyYD8PNyCrAQBCCgSGHEynKYYn9A9CCDFVFpkuXv6fZ/sk0q65AkBCEwgwH3DJFoCKSZRpnFJcqSaWsXI1zqBPjnUfcTit9YxpLJ/pJhKpXbPs09a7kMc/EAAAjETuNIdlR4fc4LkticBpJhyVwzJme55F6tS3gK5QyBLAhyVJltWpJhs6XY7Uh1x/9Z5JBQ/EICAJgEezaZJP0hspBgEYySLcL8xkkKQhjkCffIad9/w38ztO8MNI8XcirrGfanxdj4MnFtZ2U+0BP7s7hs+OtrsSKw0AaRYGlkiE5bLWvcRjjclki1pQiA9Atw3TK9mBTJGigUgJT2EI9Wky0fyERLYJHPk3bI5wsxIKQABpBgAYhJLIMckykSSERPol/NlqVwQcYakFoAAUgwAMZklVsvjZIf8Lpl8SRQCcRDY5u4bzowjFbKomwBSrJtwjOu35A6X1kExpkZOEIiKAPcNoypHE8kgxSYoxxqDI9VYK0Ne2gT6ZZE7Ku385ZEfYwSQorGCd90ucqQLILCLwHfdUelLwWGXAFK0W/vdd75cTnAf4fgWOCBglMCok+GA0b2z7XEEkCLtsDuBIRl2z1Pl4kBf2CHAo9ns1LrATpFiAUgmh3CkarLsxjb9Uvfu8LvG9sx2exBAirTI5ATOl0FZKNtABIHMCNzsZPjEzPbEdgIRQIqBQGa9TEs+5vb3tqz3yOYsEGg7GfJtMhYqXWGPSLECPHNTOVI1V/JsNjwoe8kZsjWb/bCR2gggxdrQZrwwcsy4uNlt7f+4d4fvz25XbKg2AkixNrSZL3yRHOAOou7KfJdsL10CDzoZ7p1u+mSuRQApapHPJW5LbnVbOSSX7bCPDAjwaLYMiqi3BaSoxz6vyByp5lXPFHfDo9lSrFp0OSPF6EqSeELIMfECJph+Wy6RZXJKgpmTcoQEkGKERUk+pRVyvIzKuuT3wQZiJzDi7htOiz1J8kuLAFJMq15pZcsj49KqV0rZct8wpWollStSTKpciSbLkWqihYsw7QF5rpwlV0eYGSllQgApZlLI6LdxiXvI+Ab3sHF+IOBH4LfuqPRQv6nMgkBxAkixOCtGhiDQkve5ZT4QYinWMEGAR7OZKHM8m0SK8dTCViYcqdqqt89ut8lM98RdHkjvw4453gSQojc6JgYhgByDYMxqkbZT4TL5RFZ7YjPJEECKyZQq40QvlDnuF+sfyHiHbK0YgQ3uvuH+xYYyCgL1EECK9XBlVR8CLbnKTXuBz1TmJE6Aj1gkXsB80keK+dQyn51wpJpPLXvtZJt7sPzbZH2vYfw5BJoigBSbIk2c8gSQY3lm6cz4kjsqfX066ZKpFQJI0UqlU93nKvfZtGH5Tarpk/cEAm1XzWUyHS4QiJUAUoy1MuS1O4GW/Nn9hwPBkjAB7hsmXDw7qSNFO7XOY6ccqaZXxz55ppwt16aXOBlbJIAULVY9hz0jx/ir2Cc3OBk+Nf5EyRACYwSQIt2QLoFV8jp3h+pL6W4g48w5Ks24uHlvDSnmXV8bu2vtfBTYoI3NRr7LP7sHv5/vvk2THwgkSgApJlo40u5CgCNVvbbokzPcUemn9RIgMgTCEECKYTiySiwEzpd+WSgjsaRjII/73ecN5xrYJ1s0QgApGim0uW225INuz+81t+8mN8x9wyZpE6shAkixIdCEUSLQ2vmusV8pep5hR9xDu891XxnNDwQyJIAUMywqW+pCgPuNIdpiyB2VnhNiIdaAQKwEkGKslSGv8AQ+LjPc/7aGXzj7Fbc7Fc7IfpdsEAKOAFKkDewRWC7fcZ3/Unsb99gx9w09oDElZQJIMeXqkXs1AhypTs6vXw6TpfLraoCZDYH0CCDF9GpGxqEJIMfxRO9wR6WLQiNmPQikQgApplIp8qyXwBr3DRzbd34Th90fjkrt1p6d/5UAUqQZIDCeQEt+5v7V1kOsB2SenCX30QgQgAC/aEMPQKA7ARtHqj9wR6XH0gIQgMAYAd4p0g0QmIpAnnJsOxnyQAM6HwJdCCBF2gICvQgMybOlLVf3GpbEn8+Vae4Lt3g2bBLFIkkNAkhRgzox0yTQkt+5xB+XZPJtOVWWyReSzJ2kIdAgAaTYIGxCZUIgrSPVv7ij0oWZkGcbEKidAFKsHTEBsiUQuxz5iEW2rcfG6iOAFOtjy8oWCCyXF7pHxn0vsq0OuneHOyLLiXQgkAQBpJhEmUgyegItudvluEA1z1FZIm+R1ao5EBwCiRNAiokXkPQjI6BzpPoH987wkMhIkA4EkiSAFJMsG0lHT6ApOXLfMPpWIMG0CCDFtOpFtikRWC5vcvcb19aSMjKsBSuLQgAp0gMQqJtAS+5xIeYFCbNNDpC3yfoga7EIBCCwBwGkSFNAoCkC1Y5UP+nuG/7PplIlDgSsEkCKVivPvnUIXCIDskGGSwTf6GS4X4nxDIUABCoQQIoV4DEVApUIDMnX3DNVT+y6xnT5GzlTbq+0PpMhAIHSBP4/gGU9hzzs7HYAAAAASUVORK5CYII=;" vertex="1" parent="1">
          <mxGeometry x="418.22" y="620" width="43.56" height="50" as="geometry" />
        </mxCell>
      </root>
    </mxGraphModel>
  </diagram>
</mxfile>
